<svg xmlns="http://www.w3.org/2000/svg" viewBox="0 0 329 533" role="img" aria-label="Dralvo D"><title>Dralvo D</title><defs><linearGradient id="g" x1="0" y1="0" x2="0.12" y2="1"><stop offset="0" stop-color="#FDE9A8"/><stop offset="0.3" stop-color="#F0C24A"/><stop offset="0.52" stop-color="#B8860B"/><stop offset="0.72" stop-color="#F0C24A"/><stop offset="1" stop-color="#7A5C0C"/></linearGradient></defs><path d="M 20 1.555 C 20 1.913, 23.089 5.706, 26.864 9.983 C 40.771 25.739, 48.587 39.032, 52.089 52.879 C 54.031 60.559, 54.061 64.237, 53.764 258.599 L 53.462 456.500 51.158 464.500 C 44.500 487.623, 29.390 509.216, 8.403 525.605 C 3.730 529.254, 0.042 532.375, 0.208 532.541 C 0.635 532.968, 24.266 527.747, 45.511 522.532 C 73.471 515.668, 107.155 504.206, 134.918 492.108 C 140.099 489.850, 144.489 488.155, 144.675 488.341 C 145.188 488.855, 130.195 512.197, 124.292 520.072 L 119.083 527.021 161.659 526.761 L 204.234 526.500 222.194 491 C 232.072 471.475, 240.907 454.788, 241.827 453.919 C 242.747 453.049, 248 450.398, 253.500 448.026 C 269.965 440.928, 289.360 431.525, 309.750 420.755 L 329 410.587 329 371.333 L 329 332.080 322.661 336.878 C 316.724 341.372, 280.261 360.595, 279.368 359.702 C 279.144 359.477, 280.351 357.090, 282.052 354.396 C 286.958 346.628, 314.635 301.627, 322.168 289.172 L 329.019 277.843 328.760 230.172 L 328.500 182.500 324.533 189 C 320.776 195.155, 285.831 249.154, 262.407 285 C 246.221 309.769, 194.211 387.836, 190.371 393.125 C 187.332 397.312, 185.972 398.160, 176.007 402.087 C 169.953 404.473, 165 406.771, 165 407.193 C 165 407.615, 161.963 409.361, 158.250 411.073 C 154.538 412.784, 148.912 415.457, 145.750 417.012 L 140 419.840 140 236.420 L 140 53 184.250 53.003 C 208.588 53.005, 233.675 53.479, 240 54.057 C 271.467 56.930, 300.970 66.388, 322.250 80.425 L 329 84.878 329 51.561 L 329 18.244 323.250 16.143 C 296.988 6.548, 274.012 3.207, 226.500 2.075 C 185.801 1.106, 20 0.688, 20 1.555 M 275.975 96.565 C 275.439 97.976, 275 107.179, 275 117.017 L 275 134.905 268.750 135.202 L 262.500 135.500 262.238 172.750 L 261.976 210 267.988 210 L 274 210 274.007 219.750 C 274.019 235.386, 274.993 243.148, 276.899 242.783 C 278.262 242.522, 278.574 240.100, 279 226.488 L 279.500 210.500 286 210 L 292.500 209.500 292.762 172.250 L 293.024 135 286.512 135 L 280 135 280 114.500 C 280 96.797, 279.792 94, 278.475 94 C 277.637 94, 276.512 95.154, 275.975 96.565 M 227.114 152.787 C 226.560 153.821, 226.343 161.803, 226.598 171.741 L 227.039 188.908 220.269 189.204 L 213.500 189.500 213.241 240.250 L 212.982 291 218.991 291 L 225 291 225.118 303.750 C 225.184 310.762, 225.165 317.057, 225.077 317.739 C 224.789 319.976, 226.978 322.945, 228.490 322.366 C 229.662 321.916, 230.003 318.829, 230.224 306.653 L 230.500 291.500 237.250 291.204 L 244 290.909 244.147 256.204 C 244.227 237.117, 244.315 219.025, 244.341 216 C 244.367 212.975, 244.301 205.662, 244.194 199.750 L 244 189 237.500 189 L 231 189 231 170 C 231 153.981, 230.770 151, 229.535 151 C 228.730 151, 227.640 151.804, 227.114 152.787 M 179.656 232.705 C 179.303 236.442, 179.011 244.787, 179.007 251.250 L 179 263 172.528 263 L 166.057 263 165.778 293.250 C 165.625 309.887, 165.643 327.887, 165.819 333.250 L 166.137 343 172.569 343 L 179 343 179 359.500 L 179 376 181.321 376 C 183.578 376, 183.643 375.748, 183.683 366.750 C 183.705 361.663, 183.786 354.259, 183.862 350.298 L 184 343.095 190.250 342.798 L 196.500 342.500 196.761 302.750 L 197.023 263 191.011 263 L 185 263 184.878 258.750 C 184.185 234.605, 183.444 226.511, 181.899 226.216 C 180.605 225.969, 180.174 227.217, 179.656 232.705" fill="url(#g)" fill-rule="evenodd"/></svg>
