<svg xmlns="http://www.w3.org/2000/svg" viewBox="0 0 1245 288" role="img" aria-label="Dralvo"><title>Dralvo</title><defs><linearGradient id="g" x1="0" y1="0" x2="0.12" y2="1"><stop offset="0" stop-color="#FDE9A8"/><stop offset="0.3" stop-color="#F0C24A"/><stop offset="0.52" stop-color="#B8860B"/><stop offset="0.72" stop-color="#F0C24A"/><stop offset="1" stop-color="#7A5C0C"/></linearGradient></defs><path d="M 3.500 3.167 C 13.825 8.533, 22.376 19.003, 25.991 30.705 C 27.948 37.041, 28 39.878, 28 139.658 C 28 250.776, 28.080 248.997, 22.512 261.500 C 19.362 268.576, 12.079 277.840, 5.609 283.003 C 2.569 285.429, 0.181 287.514, 0.303 287.637 C 0.426 287.759, 5.712 286.829, 12.050 285.569 C 28.071 282.385, 48.663 275.176, 67.301 266.227 L 83.101 258.641 88.694 249.570 C 91.770 244.582, 95.572 238.619, 97.143 236.320 C 98.714 234.021, 100 231.949, 100 231.716 C 100 231.483, 94.938 233.014, 88.750 235.120 C 77.014 239.113, 62.802 242.958, 59.684 242.985 C 57.936 242.999, 57.892 238.897, 58.501 134.250 L 59.135 25.500 103.317 25.509 C 135.925 25.516, 149.072 25.861, 153.500 26.826 C 187.289 34.184, 212.738 52.991, 227.734 81.685 C 237.800 100.948, 241.595 119.033, 240.766 143.799 L 240.288 158.098 242.894 155.733 C 244.327 154.433, 250.852 148.906, 257.393 143.451 L 269.287 133.533 268.681 121.017 C 266.202 69.746, 231.841 25.276, 181.755 8.516 C 159.887 1.199, 156.932 0.995, 73.651 1.044 L -0.500 1.088 3.500 3.167 M 158 57.941 L 158 67 154 67 L 150 67 150 91.940 L 150 116.879 153.750 117.190 L 157.500 117.500 157.500 125.500 C 157.500 136.627, 159.423 136.837, 159.789 125.750 L 160.078 117 164.056 117 L 168.035 117 167.767 92.250 L 167.500 67.500 163.750 67.190 L 160 66.879 160 58.499 C 160 53.889, 159.550 49.840, 159 49.500 C 158.361 49.105, 158 52.156, 158 57.941 M 315.315 81.927 C 304.213 87.721, 295.233 92.567, 295.361 92.694 C 295.488 92.822, 299.397 93.680, 304.046 94.601 C 308.696 95.522, 312.656 96.407, 312.846 96.568 C 313.388 97.024, 300.819 112.371, 289.971 124.500 C 267.038 150.141, 230.236 179.505, 197.442 198.328 C 188.206 203.630, 167.029 213.880, 159.181 216.849 L 153.861 218.861 155.260 216.680 C 156.029 215.481, 160.955 207.300, 166.206 198.500 C 171.458 189.700, 179.614 176.035, 184.332 168.134 C 189.051 160.233, 193.094 153.258, 193.318 152.634 C 193.912 150.982, 194.043 151.190, 202.151 166.669 L 209.573 180.839 220.037 173.352 C 225.791 169.235, 231.117 165.510, 231.870 165.076 C 232.929 164.465, 230.790 159.762, 222.464 144.393 C 216.537 133.452, 208.542 118.650, 204.696 111.500 C 200.851 104.350, 197.198 97.757, 196.577 96.848 C 195.636 95.469, 192.078 100.846, 175.072 129.348 C 163.865 148.132, 151.690 168.450, 148.017 174.500 C 144.344 180.550, 133.977 197.650, 124.980 212.500 C 109.939 237.325, 101.552 250.882, 85.850 275.750 L 80.010 285 97.304 285 L 114.597 285 124.849 267.612 L 135.100 250.224 147.800 245.486 C 171.155 236.773, 190.045 227.056, 214 211.432 C 252.769 186.145, 281.502 156.617, 307.547 115.296 C 312.471 107.483, 316.756 101.071, 317.068 101.046 C 317.380 101.021, 319.402 104.341, 321.560 108.425 C 323.718 112.508, 325.570 115.763, 325.676 115.657 C 325.782 115.551, 327.483 108.083, 329.456 99.060 C 331.430 90.037, 333.751 80.224, 334.615 77.253 C 335.478 74.282, 336.031 71.748, 335.843 71.622 C 335.654 71.495, 326.417 76.132, 315.315 81.927 M 128.789 89.750 L 128.500 98.500 124.750 98.810 L 121 99.121 120.986 106.310 C 120.978 110.265, 120.883 121.825, 120.773 132 L 120.575 150.500 124.859 150.811 C 128.996 151.111, 129.135 151.231, 128.926 154.311 C 128.466 161.082, 129.045 169, 130 169 C 130.592 169, 131 165.353, 131 160.060 L 131 151.121 134.750 150.810 L 138.500 150.500 138.767 124.750 L 139.034 99 135.017 99 L 131 99 131 90 C 131 78.385, 129.171 78.178, 128.789 89.750 M 100 121 L 100 130 96 130 L 92 130 92 155.500 L 92 181 96 181 L 100 181 100 190.500 C 100 198.278, 100.272 200, 101.500 200 C 102.728 200, 103 198.278, 103 190.500 L 103 181 106.500 181 L 110 181 110 155.500 L 110 130 106.500 130 L 103 130 103 121 C 103 113.667, 102.722 112, 101.500 112 C 100.278 112, 100 113.667, 100 121 M 1175.500 131.022 C 1129.820 140.191, 1112.526 196.216, 1145.393 228.555 C 1163.309 246.182, 1189.995 250.176, 1213.927 238.812 C 1222.643 234.673, 1234.296 223.045, 1238.792 214 C 1246.834 197.818, 1246.689 177.176, 1238.418 160.842 C 1227.491 139.264, 1199.808 126.143, 1175.500 131.022 M 393 188 L 393 243 417.412 243 C 446.311 243, 453.634 241.942, 465.621 236.034 C 483.777 227.085, 494.285 209.451, 494.245 188 C 494.215 171.702, 489.662 160.478, 478.592 149.408 C 464.737 135.552, 455.379 133, 418.435 133 L 393 133 393 188 M 544 187.950 L 544 243 552.490 243 L 560.980 243 561.240 195.750 L 561.500 148.500 580.416 148.227 C 602.732 147.906, 607.960 148.912, 612.839 154.470 C 622.601 165.588, 617.545 181.976, 603.118 185.984 C 601.128 186.537, 593.752 186.991, 586.726 186.994 L 573.952 187 585.942 202.750 C 592.537 211.412, 602.149 223.900, 607.302 230.500 L 616.670 242.500 627.876 242.783 L 639.081 243.066 634.791 237.657 C 621.845 221.334, 606.844 203.022, 605.985 202.491 C 604.167 201.367, 604.977 200, 607.462 200 C 611.642 200, 620.452 196.161, 624.787 192.450 C 627.252 190.340, 630.242 186.222, 632.206 182.232 C 635.148 176.257, 635.497 174.643, 635.498 167.006 C 635.500 159.363, 635.153 157.759, 632.200 151.758 C 628.551 144.342, 623.431 139.464, 615.420 135.769 C 610.666 133.577, 609.375 133.490, 577.250 133.200 L 544 132.900 544 187.950 M 732.080 137.250 C 730 142.031, 712.717 179.654, 691.927 224.660 C 687.567 234.098, 684 242.102, 684 242.446 C 684 242.791, 688.286 242.944, 693.524 242.786 L 703.048 242.500 709.611 228 C 713.220 220.025, 719.231 206.750, 722.967 198.500 C 726.704 190.250, 732.844 176.575, 736.613 168.111 L 743.465 152.722 746.158 158.611 C 748.805 164.398, 758.923 187.449, 774.861 224 L 782.928 242.500 792.464 242.786 C 797.709 242.944, 802 242.686, 802 242.214 C 802 241.742, 794.089 223.613, 784.421 201.928 C 774.752 180.243, 763.889 155.863, 760.280 147.750 L 753.717 133 743.823 133 L 733.929 133 732.080 137.250 M 854 188 L 854 243 895 243 L 936 243 936 234.500 L 936 226 904 226 L 872 226 872 179.500 L 872 133 863 133 L 854 133 854 188 M 976.369 136.250 C 977.137 138.037, 983.588 152.775, 990.704 169 C 997.820 185.225, 1007.876 208.512, 1013.051 220.750 L 1022.461 243 1031.480 242.974 L 1040.500 242.948 1047.720 226.724 C 1051.691 217.801, 1060.404 198.575, 1067.083 184 C 1073.761 169.425, 1080.476 154.575, 1082.005 151 C 1083.533 147.425, 1085.952 141.912, 1087.379 138.750 L 1089.975 133 1080.055 133 C 1070.918 133, 1070.083 133.163, 1069.481 135.059 C 1069.122 136.192, 1062.280 151.829, 1054.278 169.809 C 1040.214 201.406, 1034.136 215.343, 1032.618 219.472 C 1032.080 220.933, 1028.462 213.300, 1018.634 189.972 C 1011.341 172.662, 1002.928 152.768, 999.937 145.763 L 994.500 133.026 984.737 133.013 L 974.973 133 976.369 136.250 M 1175.500 148.345 C 1156.273 154.717, 1144.617 171.918, 1146.272 191.479 C 1147.860 210.245, 1161.877 224.936, 1181.371 228.269 C 1186.360 229.121, 1188.939 228.996, 1195.232 227.594 C 1212.032 223.852, 1223.807 211.229, 1227.096 193.436 C 1230.139 176.979, 1218.310 156.099, 1202.500 150.017 C 1195.158 147.192, 1181.525 146.348, 1175.500 148.345 M 411 187.950 L 411 227.059 428.684 226.455 C 452.066 225.657, 457.038 224.013, 466.427 213.974 C 480.781 198.630, 479.865 173.217, 464.452 159.131 C 455.508 150.956, 450.857 149.645, 429.250 149.209 L 411 148.841 411 187.950 M 76 169 L 76 176 72.500 176 L 69 176 69 194 L 69 212 72.500 212 L 76 212 76 220 C 76 224.667, 76.417 228, 77 228 C 77.583 228, 78 224.667, 78 220 L 78 212 81.500 212 L 85 212 85 194 L 85 176 81.500 176 L 78 176 78 169 C 78 165, 77.571 162, 77 162 C 76.429 162, 76 165, 76 169 M 239.578 202.631 C 233.571 207.203, 228.241 211.359, 227.734 211.866 C 226.961 212.639, 264.257 281.628, 266.877 284.270 C 267.297 284.694, 277.509 284.919, 289.570 284.770 C 311.105 284.505, 311.442 284.468, 308.289 282.745 C 303.561 280.160, 294.861 271.289, 290.886 265 C 288.973 261.975, 279.594 245.550, 270.042 228.500 C 260.490 211.450, 252.185 196.784, 251.587 195.909 C 250.652 194.540, 248.977 195.477, 239.578 202.631" fill="url(#g)" fill-rule="evenodd"/></svg>
