<svg xmlns="http://www.w3.org/2000/svg" viewBox="0 0 587 533" role="img" aria-label="Dralvo"><title>Dralvo</title><path d="M 20 1.555 C 20 1.913, 23.089 5.706, 26.864 9.983 C 40.771 25.739, 48.587 39.032, 52.089 52.879 C 54.031 60.559, 54.061 64.237, 53.764 258.599 L 53.462 456.500 51.158 464.500 C 44.500 487.623, 29.390 509.216, 8.403 525.605 C 3.730 529.254, 0.042 532.375, 0.208 532.541 C 0.635 532.968, 24.266 527.747, 45.511 522.532 C 73.471 515.668, 107.155 504.206, 134.918 492.108 C 140.099 489.850, 144.489 488.155, 144.675 488.341 C 145.188 488.855, 130.195 512.197, 124.292 520.072 L 119.083 527.021 161.659 526.761 L 204.234 526.500 222.194 491 C 232.072 471.475, 240.907 454.794, 241.827 453.931 C 242.747 453.067, 249.575 449.724, 257 446.501 C 273.463 439.354, 314.485 418.713, 329.500 410.021 C 344.584 401.289, 363.558 389.192, 375.321 380.808 C 380.722 376.958, 385.243 373.964, 385.366 374.154 C 385.490 374.344, 387.769 379.450, 390.431 385.500 C 396.077 398.332, 419.035 448.505, 432.758 478 C 443.334 500.732, 455.754 526.127, 456.814 527.186 C 457.592 527.964, 552.015 528.772, 551.975 528 C 551.960 527.725, 549.611 525.925, 546.754 524 C 528.549 511.734, 517.547 496.332, 495.680 452.500 C 482.615 426.311, 437 333.010, 437 332.475 C 437 332.317, 440.241 329.108, 444.202 325.344 C 471.375 299.524, 496.634 270.617, 526.288 231.405 C 530.487 225.852, 534.564 220.777, 535.348 220.126 C 536.522 219.151, 538.581 221.339, 547.025 232.533 C 552.663 240.008, 557.614 245.758, 558.026 245.312 C 559.430 243.791, 586.584 143.251, 585.802 142.469 C 585.563 142.230, 580.673 144.004, 574.934 146.412 C 569.195 148.819, 554.600 154.477, 542.500 158.986 C 488.748 179.013, 485 180.506, 485 181.889 C 485 182.326, 486.856 183.239, 489.123 183.919 C 495.355 185.786, 514 194.732, 514 195.855 C 514 197.663, 502.596 207.132, 494.742 211.845 C 490.476 214.405, 485.500 217.400, 483.684 218.500 C 481.869 219.600, 476.711 223.088, 472.224 226.250 C 467.736 229.412, 463.892 232, 463.682 232 C 463.472 232, 463.001 226.709, 462.636 220.242 C 459.663 167.652, 441.228 116.748, 411.755 79.754 C 384.541 45.593, 345.958 20.821, 303.278 10.104 C 281.517 4.640, 265.985 3.016, 226.500 2.075 C 185.801 1.106, 20 0.688, 20 1.555 M 140 236.335 L 140 419.840 145.750 417.012 C 148.912 415.457, 154.537 412.784, 158.250 411.073 C 161.963 409.361, 165 407.615, 165 407.193 C 165 406.771, 169.953 404.473, 176.007 402.087 C 185.972 398.160, 187.332 397.312, 190.371 393.125 C 199.801 380.137, 259.587 289.570, 299.047 228.500 C 336.031 171.260, 344.135 159, 344.984 159 C 346.178 159, 356.787 179.211, 381.515 228.596 C 394.157 253.843, 404.583 274.658, 404.684 274.851 C 404.786 275.044, 406.428 274.013, 408.334 272.559 C 411.379 270.236, 411.753 269.467, 411.421 266.208 C 411.213 264.169, 410.559 257.100, 409.968 250.500 C 405.300 198.372, 390.246 153.433, 366.906 121.954 C 344.117 91.218, 312.072 69.687, 274.821 60.083 C 251.668 54.113, 247.073 53.738, 191.250 53.264 L 140 52.829 140 236.335 M 275.975 96.565 C 275.439 97.976, 275 107.179, 275 117.017 L 275 134.905 268.750 135.202 L 262.500 135.500 262.238 172.750 L 261.976 210 267.988 210 L 274 210 274.007 219.750 C 274.019 235.386, 274.993 243.148, 276.899 242.783 C 278.262 242.522, 278.574 240.100, 279 226.488 L 279.500 210.500 286 210 L 292.500 209.500 292.762 172.250 L 293.024 135 286.512 135 L 280 135 280 114.500 C 280 96.797, 279.792 94, 278.475 94 C 277.637 94, 276.512 95.154, 275.975 96.565 M 227.114 152.787 C 226.560 153.821, 226.343 161.803, 226.598 171.741 L 227.039 188.908 220.269 189.204 L 213.500 189.500 213.241 240.250 L 212.982 291 218.991 291 L 225 291 225.118 303.750 C 225.184 310.762, 225.165 317.057, 225.077 317.739 C 224.789 319.976, 226.978 322.945, 228.490 322.366 C 229.662 321.916, 230.003 318.829, 230.224 306.653 L 230.500 291.500 237.250 291.204 L 244 290.909 244.147 256.204 C 244.227 237.117, 244.315 219.025, 244.341 216 C 244.367 212.975, 244.301 205.662, 244.194 199.750 L 244 189 237.500 189 L 231 189 231 170 C 231 153.981, 230.770 151, 229.535 151 C 228.730 151, 227.640 151.804, 227.114 152.787 M 179.656 232.705 C 179.303 236.442, 179.011 244.787, 179.007 251.250 L 179 263 172.528 263 L 166.057 263 165.778 293.250 C 165.625 309.887, 165.643 327.887, 165.819 333.250 L 166.137 343 172.569 343 L 179 343 179 359.500 L 179 376 181.321 376 C 183.578 376, 183.643 375.748, 183.683 366.750 C 183.705 361.663, 183.786 354.259, 183.862 350.298 L 184 343.095 190.250 342.798 L 196.500 342.500 196.761 302.750 L 197.023 263 191.011 263 L 185 263 184.878 258.750 C 184.185 234.605, 183.444 226.511, 181.899 226.216 C 180.605 225.969, 180.174 227.217, 179.656 232.705 M 325.742 283.250 C 315.094 300.841, 287.644 345.540, 282.052 354.396 C 280.351 357.090, 279.148 359.481, 279.378 359.711 C 279.608 359.941, 288.280 355.822, 298.648 350.557 C 314.234 342.643, 319.763 339.210, 330.560 330.742 C 353.722 312.577, 357 309.838, 356.986 308.659 C 356.978 308.021, 352.886 298.950, 347.891 288.500 C 342.897 278.050, 338.575 268.712, 338.289 267.750 C 338.002 266.788, 337.411 266, 336.976 266 C 336.540 266, 331.485 273.762, 325.742 283.250" fill="currentColor" fill-rule="evenodd"/></svg>
