<svg xmlns="http://www.w3.org/2000/svg" viewBox="0 0 800 360" preserveAspectRatio="xMidYMid slice"> <defs> <linearGradient id="bg" x1="0" y1="0" x2="1" y2="1"><stop offset="0" stop-color="#0e1218"/><stop offset="1" stop-color="#05080b"/></linearGradient> <radialGradient id="glow" cx="30%" cy="25%" r="70%"><stop offset="0" stop-color="hsl(189 70% 50%)" stop-opacity="0.35"/><stop offset="1" stop-color="hsl(189 70% 50%)" stop-opacity="0"/></radialGradient> <linearGradient id="trendfill" x1="0" y1="0" x2="0" y2="1"><stop offset="0" stop-color="#F0B90B" stop-opacity="0.22"/><stop offset="1" stop-color="#F0B90B" stop-opacity="0"/></linearGradient> <linearGradient id="goldgrad" x1="0" y1="0" x2="1" y2="1"><stop offset="0" stop-color="#FCD535"/><stop offset="1" stop-color="#B8860B"/></linearGradient> <pattern id="grid" width="36" height="36" patternUnits="userSpaceOnUse"><path d="M36 0H0V36" fill="none" stroke="#ffffff" stroke-width="0.5" opacity="0.035"/></pattern> </defs> <rect width="800" height="360" fill="url(#bg)"/> <rect width="800" height="360" fill="url(#grid)"/> <rect width="800" height="360" fill="url(#glow)"/> <line x1="41" y1="157.98618104029447" x2="41" y2="280.91557191312313" stroke="#F6465D" stroke-width="1.5" opacity="0.30"/><rect x="30" y="178.0444806655869" width="22" height="82.81279162224382" rx="2" fill="#F6465D" opacity="0.42"/><line x1="83" y1="179.2324095228687" x2="83" y2="293.17568862996995" stroke="#0ECB81" stroke-width="1.5" opacity="0.30"/><rect x="72" y="192.27524108532816" width="22" height="87.85761598218232" rx="2" fill="#0ECB81" opacity="0.42"/><line x1="125" y1="189.25049711484462" x2="125" y2="312.35631811246276" stroke="#0ECB81" stroke-width="1.5" opacity="0.30"/><rect x="114" y="209.538981619291" width="22" height="82.52885198872536" rx="2" fill="#0ECB81" opacity="0.42"/><line x1="167" y1="182.43829289916903" x2="167" y2="309.63194222934544" stroke="#F6465D" stroke-width="1.5" opacity="0.30"/><rect x="156" y="202.9535139473155" width="22" height="86.16320723388344" rx="2" fill="#F6465D" opacity="0.42"/><line x1="209" y1="181.62478304374963" x2="209" y2="287.5559719875455" stroke="#F6465D" stroke-width="1.5" opacity="0.30"/><rect x="198" y="197.16928066965193" width="22" height="74.84219369199127" rx="2" fill="#F6465D" opacity="0.42"/><line x1="251" y1="200.87648728583008" x2="251" y2="300.4800590556115" stroke="#F6465D" stroke-width="1.5" opacity="0.30"/><rect x="240" y="215.23031722102314" width="22" height="70.89591189939529" rx="2" fill="#F6465D" opacity="0.42"/><line x1="293" y1="169.48744916636497" x2="293" y2="303.7605166621506" stroke="#0ECB81" stroke-width="1.5" opacity="0.30"/><rect x="282" y="193.25747940968722" width="22" height="86.73300700914115" rx="2" fill="#0ECB81" opacity="0.42"/><line x1="335" y1="168.59032001439482" x2="335" y2="293.59559986926615" stroke="#0ECB81" stroke-width="1.5" opacity="0.30"/><rect x="324" y="196.86018658149987" width="22" height="68.46554672066122" rx="2" fill="#0ECB81" opacity="0.42"/><line x1="377" y1="202.8260366814211" x2="377" y2="300.83739522099495" stroke="#0ECB81" stroke-width="1.5" opacity="0.30"/><rect x="366" y="215.68293040897697" width="22" height="72.2975710844621" rx="2" fill="#0ECB81" opacity="0.42"/><line x1="419" y1="162.50959302578121" x2="419" y2="291.62206976674497" stroke="#0ECB81" stroke-width="1.5" opacity="0.30"/><rect x="408" y="184.99279930535704" width="22" height="84.14606418181211" rx="2" fill="#0ECB81" opacity="0.42"/><line x1="461" y1="240.7294051470235" x2="461" y2="301.16222945973277" stroke="#0ECB81" stroke-width="1.5" opacity="0.30"/><rect x="450" y="255.71426846366376" width="22" height="30.463097679428756" rx="2" fill="#0ECB81" opacity="0.42"/><line x1="503" y1="218.81777037028223" x2="503" y2="310.545136930421" stroke="#F6465D" stroke-width="1.5" opacity="0.30"/><rect x="492" y="236.81750552076846" width="22" height="55.7278962591663" rx="2" fill="#F6465D" opacity="0.42"/><line x1="545" y1="198.62991998065263" x2="545" y2="293.8805386349559" stroke="#F6465D" stroke-width="1.5" opacity="0.30"/><rect x="534" y="226.46644184645265" width="22" height="39.57757492270321" rx="2" fill="#F6465D" opacity="0.42"/><line x1="587" y1="193.06916570756584" x2="587" y2="302.64185137860477" stroke="#0ECB81" stroke-width="1.5" opacity="0.30"/><rect x="576" y="210.83285945747048" width="22" height="74.04529817122966" rx="2" fill="#0ECB81" opacity="0.42"/><line x1="629" y1="181.29563995916396" x2="629" y2="271.5444582141936" stroke="#F6465D" stroke-width="1.5" opacity="0.30"/><rect x="618" y="191.98274355661124" width="22" height="68.87461106013507" rx="2" fill="#F6465D" opacity="0.42"/><line x1="671" y1="236.05612980667502" x2="671" y2="311.80486371554434" stroke="#0ECB81" stroke-width="1.5" opacity="0.30"/><rect x="660" y="258.7411506967619" width="22" height="30.378692128695548" rx="2" fill="#0ECB81" opacity="0.42"/><line x1="713" y1="207.57250471878797" x2="713" y2="303.12445862591267" stroke="#0ECB81" stroke-width="1.5" opacity="0.30"/><rect x="702" y="226.9418425699696" width="22" height="56.813278204761446" rx="2" fill="#0ECB81" opacity="0.42"/><line x1="755" y1="247.42623804602772" x2="755" y2="289.24164388142526" stroke="#0ECB81" stroke-width="1.5" opacity="0.30"/><rect x="744" y="257.9679354215041" width="22" height="20.73201108444482" rx="2" fill="#0ECB81" opacity="0.42"/> <path d="M -20 230.3156504337676 Q -20 230.3156504337676 20 227.59716297965497 T 60 224.87867552554235 Q 60 224.87867552554235 100 217.8114977676887 T 140 210.74432000983506 Q 140 210.74432000983506 180 224.9493077257648 T 220 239.15429544169456 Q 220 239.15429544169456 260 239.59453245275654 T 300 240.03476946381852 Q 300 240.03476946381852 340 238.80798645783216 T 380 237.5812034518458 Q 380 237.5812034518458 420 239.86054305103607 T 460 242.13988265022635 Q 460 242.13988265022635 500 233.14860390033573 T 540 224.1573251504451 Q 540 224.1573251504451 580 234.1585425066296 T 620 244.1597598628141 Q 620 244.1597598628141 660 233.74194191303104 T 700 223.32412396324798 Q 700 223.32412396324798 740 228.16364036989398 T 780 233.00315677653998 L 820 360 L -20 360 Z" fill="url(#trendfill)" opacity="0.5"/><path d="M -20 230.3156504337676 Q -20 230.3156504337676 20 227.59716297965497 T 60 224.87867552554235 Q 60 224.87867552554235 100 217.8114977676887 T 140 210.74432000983506 Q 140 210.74432000983506 180 224.9493077257648 T 220 239.15429544169456 Q 220 239.15429544169456 260 239.59453245275654 T 300 240.03476946381852 Q 300 240.03476946381852 340 238.80798645783216 T 380 237.5812034518458 Q 380 237.5812034518458 420 239.86054305103607 T 460 242.13988265022635 Q 460 242.13988265022635 500 233.14860390033573 T 540 224.1573251504451 Q 540 224.1573251504451 580 234.1585425066296 T 620 244.1597598628141 Q 620 244.1597598628141 660 233.74194191303104 T 700 223.32412396324798 Q 700 223.32412396324798 740 228.16364036989398 T 780 233.00315677653998" fill="none" stroke="#F0B90B" stroke-width="2.5" opacity="0.85" stroke-linecap="round"/> <line x1="736.4904935401864" y1="162.86235603038222" x2="767.8252240899019" y2="86.14600719884038" stroke="hsl(189 80% 65%)" stroke-width="1" opacity="0.25"/><line x1="736.4904935401864" y1="162.86235603038222" x2="562.1134060318582" y2="109.65487770736217" stroke="hsl(189 80% 65%)" stroke-width="1" opacity="0.25"/><line x1="767.8252240899019" y1="86.14600719884038" x2="574.1615005373023" y2="86.50705670006573" stroke="hsl(189 80% 65%)" stroke-width="1" opacity="0.25"/><line x1="644.3323634215631" y1="103.16515935119241" x2="574.1615005373023" y2="86.50705670006573" stroke="hsl(189 80% 65%)" stroke-width="1" opacity="0.25"/><line x1="644.3323634215631" y1="103.16515935119241" x2="648.4465991915204" y2="102.05319512169808" stroke="hsl(189 80% 65%)" stroke-width="1" opacity="0.25"/><line x1="574.1615005373023" y1="86.50705670006573" x2="760.7446050201543" y2="100.84791698027402" stroke="hsl(189 80% 65%)" stroke-width="1" opacity="0.25"/><line x1="574.1615005373023" y1="86.50705670006573" x2="562.1134060318582" y2="109.65487770736217" stroke="hsl(189 80% 65%)" stroke-width="1" opacity="0.25"/><circle cx="736.4904935401864" cy="162.86235603038222" r="5.2023988116998225" fill="hsl(189 85% 65%)" opacity="0.8"/><circle cx="767.8252240899019" cy="86.14600719884038" r="6.896093919640407" fill="hsl(189 85% 65%)" opacity="0.8"/><circle cx="644.3323634215631" cy="103.16515935119241" r="6.276266272179782" fill="hsl(189 85% 65%)" opacity="0.8"/><circle cx="574.1615005373023" cy="86.50705670006573" r="5.397399263456464" fill="hsl(189 85% 65%)" opacity="0.8"/><circle cx="760.7446050201543" cy="100.84791698027402" r="6.175437428755686" fill="hsl(189 85% 65%)" opacity="0.8"/><circle cx="562.1134060318582" cy="109.65487770736217" r="5.202011715853587" fill="hsl(189 85% 65%)" opacity="0.8"/><circle cx="648.4465991915204" cy="102.05319512169808" r="5.259535110089928" fill="hsl(189 85% 65%)" opacity="0.8"/> <text x="40" y="320" font-family="'JetBrains Mono', monospace" font-size="58" font-weight="700" fill="#ffffff" opacity="0.07">BB Return</text> </svg>