<svg xmlns="http://www.w3.org/2000/svg" viewBox="0 0 800 360" preserveAspectRatio="xMidYMid slice"> <defs> <linearGradient id="bg" x1="0" y1="0" x2="1" y2="1"><stop offset="0" stop-color="#0e1218"/><stop offset="1" stop-color="#05080b"/></linearGradient> <radialGradient id="glow" cx="30%" cy="25%" r="70%"><stop offset="0" stop-color="hsl(208 70% 50%)" stop-opacity="0.35"/><stop offset="1" stop-color="hsl(208 70% 50%)" stop-opacity="0"/></radialGradient> <linearGradient id="trendfill" x1="0" y1="0" x2="0" y2="1"><stop offset="0" stop-color="#F0B90B" stop-opacity="0.22"/><stop offset="1" stop-color="#F0B90B" stop-opacity="0"/></linearGradient> <linearGradient id="goldgrad" x1="0" y1="0" x2="1" y2="1"><stop offset="0" stop-color="#FCD535"/><stop offset="1" stop-color="#B8860B"/></linearGradient> <pattern id="grid" width="36" height="36" patternUnits="userSpaceOnUse"><path d="M36 0H0V36" fill="none" stroke="#ffffff" stroke-width="0.5" opacity="0.035"/></pattern> </defs> <rect width="800" height="360" fill="url(#bg)"/> <rect width="800" height="360" fill="url(#grid)"/> <rect width="800" height="360" fill="url(#glow)"/> <line x1="41" y1="172.73545252159238" x2="41" y2="296.15286468109116" stroke="#0ECB81" stroke-width="1.5" opacity="0.30"/><rect x="30" y="204.0830480544828" width="22" height="60.72222109371796" rx="2" fill="#0ECB81" opacity="0.42"/><line x1="83" y1="203.1060664653778" x2="83" y2="318.81903192354366" stroke="#F6465D" stroke-width="1.5" opacity="0.30"/><rect x="72" y="229.1554252016358" width="22" height="63.614247985649854" rx="2" fill="#F6465D" opacity="0.42"/><line x1="125" y1="224.3645785562694" x2="125" y2="303.6526471800171" stroke="#F6465D" stroke-width="1.5" opacity="0.30"/><rect x="114" y="238.3809498376213" width="22" height="51.25532606104389" rx="2" fill="#F6465D" opacity="0.42"/><line x1="167" y1="202.56236799806356" x2="167" y2="293.11065348563716" stroke="#0ECB81" stroke-width="1.5" opacity="0.30"/><rect x="156" y="214.37596307648346" width="22" height="66.9210953307338" rx="2" fill="#0ECB81" opacity="0.42"/><line x1="209" y1="181.19751504436135" x2="209" y2="315.7018661289476" stroke="#F6465D" stroke-width="1.5" opacity="0.30"/><rect x="198" y="204.73929657181725" width="22" height="87.42078802967444" rx="2" fill="#F6465D" opacity="0.42"/><line x1="251" y1="200.65303342044353" x2="251" y2="304.47415526909754" stroke="#0ECB81" stroke-width="1.5" opacity="0.30"/><rect x="240" y="216.59145708708093" width="22" height="71.94427451537922" rx="2" fill="#0ECB81" opacity="0.42"/><line x1="293" y1="242.05307149514556" x2="293" y2="309.68717542802915" stroke="#0ECB81" stroke-width="1.5" opacity="0.30"/><rect x="282" y="253.97513919090852" width="22" height="43.789968541357666" rx="2" fill="#0ECB81" opacity="0.42"/><line x1="335" y1="260.72458220273256" x2="335" y2="316.88939185766503" stroke="#F6465D" stroke-width="1.5" opacity="0.30"/><rect x="324" y="277.64831607742235" width="22" height="22.317341905552894" rx="2" fill="#F6465D" opacity="0.42"/><line x1="377" y1="193.45196171477437" x2="377" y2="305.11815378209576" stroke="#0ECB81" stroke-width="1.5" opacity="0.30"/><rect x="366" y="219.3011585115455" width="22" height="59.96779847377911" rx="2" fill="#0ECB81" opacity="0.42"/><line x1="419" y1="252.7121568620205" x2="419" y2="303.4415645147674" stroke="#F6465D" stroke-width="1.5" opacity="0.30"/><rect x="408" y="264.7280318993144" width="22" height="26.697657578159124" rx="2" fill="#F6465D" opacity="0.42"/><line x1="461" y1="188.07774130627513" x2="461" y2="299.5608984506689" stroke="#0ECB81" stroke-width="1.5" opacity="0.30"/><rect x="450" y="212.9858214831911" width="22" height="61.666996790561825" rx="2" fill="#0ECB81" opacity="0.42"/><line x1="503" y1="217.97546046227217" x2="503" y2="303.6923149335198" stroke="#0ECB81" stroke-width="1.5" opacity="0.30"/><rect x="492" y="241.06983566237614" width="22" height="39.52810407103971" rx="2" fill="#0ECB81" opacity="0.42"/><line x1="545" y1="195.98774516955018" x2="545" y2="292.44661899795756" stroke="#0ECB81" stroke-width="1.5" opacity="0.30"/><rect x="534" y="216.1385374381207" width="22" height="56.15728929126635" rx="2" fill="#0ECB81" opacity="0.42"/><line x1="587" y1="202.88469411432743" x2="587" y2="292.92581898672506" stroke="#0ECB81" stroke-width="1.5" opacity="0.30"/><rect x="576" y="229.81835398403928" width="22" height="36.17380513297394" rx="2" fill="#0ECB81" opacity="0.42"/><line x1="629" y1="154.57402500137687" x2="629" y2="290.7552310428582" stroke="#0ECB81" stroke-width="1.5" opacity="0.30"/><rect x="618" y="181.61981434142217" width="22" height="82.08962736139074" rx="2" fill="#0ECB81" opacity="0.42"/><line x1="671" y1="211.15649447590113" x2="671" y2="323.26988047687337" stroke="#0ECB81" stroke-width="1.5" opacity="0.30"/><rect x="660" y="240.99626523954794" width="22" height="52.43384447367862" rx="2" fill="#0ECB81" opacity="0.42"/><line x1="713" y1="209.27428679540753" x2="713" y2="294.57395000895485" stroke="#0ECB81" stroke-width="1.5" opacity="0.30"/><rect x="702" y="240.07641504099593" width="22" height="23.695406722370535" rx="2" fill="#0ECB81" opacity="0.42"/><line x1="755" y1="248.9398712515831" x2="755" y2="312.69202488614246" stroke="#0ECB81" stroke-width="1.5" opacity="0.30"/><rect x="744" y="271.60195581195876" width="22" height="18.427984513808042" rx="2" fill="#0ECB81" opacity="0.42"/> <path d="M -20 207.1817688178271 Q -20 207.1817688178271 20 207.31489469879307 T 60 207.44802057975903 Q 60 207.44802057975903 100 222.06741449888796 T 140 236.68680841801688 Q 140 236.68680841801688 180 243.34340420900844 T 220 250 Q 220 250 260 250 T 300 250 Q 300 250 340 249.21803044271655 T 380 248.4360608854331 Q 380 248.4360608854331 420 249.21803044271655 T 460 250 Q 460 250 500 244.99994906480424 T 540 239.99989812960848 Q 540 239.99989812960848 580 223.47937045851722 T 620 206.95884278742597 Q 620 206.95884278742597 660 218.89949865988456 T 700 230.84015453234315 Q 700 230.84015453234315 740 239.31863771984354 T 780 247.79712090734392 L 820 360 L -20 360 Z" fill="url(#trendfill)" opacity="0.5"/><path d="M -20 207.1817688178271 Q -20 207.1817688178271 20 207.31489469879307 T 60 207.44802057975903 Q 60 207.44802057975903 100 222.06741449888796 T 140 236.68680841801688 Q 140 236.68680841801688 180 243.34340420900844 T 220 250 Q 220 250 260 250 T 300 250 Q 300 250 340 249.21803044271655 T 380 248.4360608854331 Q 380 248.4360608854331 420 249.21803044271655 T 460 250 Q 460 250 500 244.99994906480424 T 540 239.99989812960848 Q 540 239.99989812960848 580 223.47937045851722 T 620 206.95884278742597 Q 620 206.95884278742597 660 218.89949865988456 T 700 230.84015453234315 Q 700 230.84015453234315 740 239.31863771984354 T 780 247.79712090734392" fill="none" stroke="#F0B90B" stroke-width="2.5" opacity="0.85" stroke-linecap="round"/> <path d="M-20 120 C 120 94, 240 146, 400 120 S 680 94, 820 120" fill="none" stroke="hsl(208 75% 60%)" stroke-width="2" opacity="0.3"/><path d="M-20 175 C 120 154, 240 196, 400 175 S 680 154, 820 175" fill="none" stroke="hsl(208 75% 60%)" stroke-width="2" opacity="0.24"/><path d="M-20 230 C 120 214, 240 246, 400 230 S 680 214, 820 230" fill="none" stroke="hsl(208 75% 60%)" stroke-width="2" opacity="0.18"/> <text x="40" y="320" font-family="'JetBrains Mono', monospace" font-size="58" font-weight="700" fill="#ffffff" opacity="0.07">Osmosis</text> </svg>