<svg xmlns="http://www.w3.org/2000/svg" viewBox="0 0 800 360" preserveAspectRatio="xMidYMid slice"> <defs> <linearGradient id="bg" x1="0" y1="0" x2="1" y2="1"><stop offset="0" stop-color="#0e1218"/><stop offset="1" stop-color="#05080b"/></linearGradient> <radialGradient id="glow" cx="30%" cy="25%" r="70%"><stop offset="0" stop-color="hsl(274 70% 50%)" stop-opacity="0.35"/><stop offset="1" stop-color="hsl(274 70% 50%)" stop-opacity="0"/></radialGradient> <linearGradient id="trendfill" x1="0" y1="0" x2="0" y2="1"><stop offset="0" stop-color="#F0B90B" stop-opacity="0.22"/><stop offset="1" stop-color="#F0B90B" stop-opacity="0"/></linearGradient> <linearGradient id="goldgrad" x1="0" y1="0" x2="1" y2="1"><stop offset="0" stop-color="#FCD535"/><stop offset="1" stop-color="#B8860B"/></linearGradient> <pattern id="grid" width="36" height="36" patternUnits="userSpaceOnUse"><path d="M36 0H0V36" fill="none" stroke="#ffffff" stroke-width="0.5" opacity="0.035"/></pattern> </defs> <rect width="800" height="360" fill="url(#bg)"/> <rect width="800" height="360" fill="url(#grid)"/> <rect width="800" height="360" fill="url(#glow)"/> <line x1="41" y1="217.69337734021246" x2="41" y2="295.645521574188" stroke="#F6465D" stroke-width="1.5" opacity="0.30"/><rect x="30" y="229.47089680517092" width="22" height="54.39710530405864" rx="2" fill="#F6465D" opacity="0.42"/><line x1="83" y1="232.06147248111665" x2="83" y2="313.21635212609544" stroke="#0ECB81" stroke-width="1.5" opacity="0.30"/><rect x="72" y="251.35057656140998" width="22" height="42.576671484392136" rx="2" fill="#0ECB81" opacity="0.42"/><line x1="125" y1="193.75869034416974" x2="125" y2="290.91807611705735" stroke="#0ECB81" stroke-width="1.5" opacity="0.30"/><rect x="114" y="219.97054698923603" width="22" height="44.735672482755035" rx="2" fill="#0ECB81" opacity="0.42"/><line x1="167" y1="189.97296866588295" x2="167" y2="307.7368075721897" stroke="#0ECB81" stroke-width="1.5" opacity="0.30"/><rect x="156" y="206.6856478904374" width="22" height="84.33848045719787" rx="2" fill="#0ECB81" opacity="0.42"/><line x1="209" y1="222.0287655685097" x2="209" y2="317.7168193911202" stroke="#F6465D" stroke-width="1.5" opacity="0.30"/><rect x="198" y="252.28541907900944" width="22" height="35.174746801611036" rx="2" fill="#F6465D" opacity="0.42"/><line x1="251" y1="195.3155263569206" x2="251" y2="293.1186244026758" stroke="#F6465D" stroke-width="1.5" opacity="0.30"/><rect x="240" y="218.51082401396707" width="22" height="51.412502731662244" rx="2" fill="#F6465D" opacity="0.42"/><line x1="293" y1="218.72786906547844" x2="293" y2="318.62197829457" stroke="#0ECB81" stroke-width="1.5" opacity="0.30"/><rect x="282" y="240.9479265571572" width="22" height="55.453994245734066" rx="2" fill="#0ECB81" opacity="0.42"/><line x1="335" y1="186.3049887549132" x2="335" y2="301.54255441809073" stroke="#0ECB81" stroke-width="1.5" opacity="0.30"/><rect x="324" y="209.07977085607126" width="22" height="69.68800146086141" rx="2" fill="#0ECB81" opacity="0.42"/><line x1="377" y1="206.75678055919707" x2="377" y2="282.53104046778753" stroke="#F6465D" stroke-width="1.5" opacity="0.30"/><rect x="366" y="221.77771435165778" width="22" height="45.732392323669046" rx="2" fill="#F6465D" opacity="0.42"/><line x1="419" y1="229.56418148241937" x2="419" y2="300.7234070361592" stroke="#F6465D" stroke-width="1.5" opacity="0.30"/><rect x="408" y="249.01346391113475" width="22" height="32.26066069630906" rx="2" fill="#F6465D" opacity="0.42"/><line x1="461" y1="173.34123094566166" x2="461" y2="282.8110980433412" stroke="#F6465D" stroke-width="1.5" opacity="0.30"/><rect x="450" y="193.07306508580223" width="22" height="70.0061988173984" rx="2" fill="#F6465D" opacity="0.42"/><line x1="503" y1="219.14635008387268" x2="503" y2="310.99989304179326" stroke="#F6465D" stroke-width="1.5" opacity="0.30"/><rect x="492" y="235.0540944938548" width="22" height="60.03805413795635" rx="2" fill="#F6465D" opacity="0.42"/><line x1="545" y1="164.43033979274333" x2="545" y2="304.3261913959868" stroke="#0ECB81" stroke-width="1.5" opacity="0.30"/><rect x="534" y="194.92730532819405" width="22" height="78.90192053234205" rx="2" fill="#0ECB81" opacity="0.42"/><line x1="587" y1="240.30859752558172" x2="587" y2="293.29946833709255" stroke="#F6465D" stroke-width="1.5" opacity="0.30"/><rect x="576" y="255.94397598924115" width="22" height="21.72011388419196" rx="2" fill="#F6465D" opacity="0.42"/><line x1="629" y1="215.84505284018815" x2="629" y2="299.3396528926678" stroke="#F6465D" stroke-width="1.5" opacity="0.30"/><rect x="618" y="226.67021184274927" width="22" height="61.84428204735741" rx="2" fill="#F6465D" opacity="0.42"/><line x1="671" y1="180.0353216957301" x2="671" y2="305.9781776913442" stroke="#0ECB81" stroke-width="1.5" opacity="0.30"/><rect x="660" y="206.4294501026161" width="22" height="73.15459918184206" rx="2" fill="#0ECB81" opacity="0.42"/><line x1="713" y1="229.17657949961722" x2="713" y2="284.291450642515" stroke="#0ECB81" stroke-width="1.5" opacity="0.30"/><rect x="702" y="242.4344178386964" width="22" height="28.599194464739412" rx="2" fill="#0ECB81" opacity="0.42"/><line x1="755" y1="198.3116529043764" x2="755" y2="286.53549849102274" stroke="#F6465D" stroke-width="1.5" opacity="0.30"/><rect x="744" y="219.3897931096144" width="22" height="46.06756517617032" rx="2" fill="#F6465D" opacity="0.42"/> <path d="M -20 183.30091506708413 Q -20 183.30091506708413 20 179.38931322540157 T 60 175.477711383719 Q 60 175.477711383719 100 169.68456375645474 T 140 163.89141612919047 Q 140 163.89141612919047 180 148.09952313429676 T 220 132.30763013940305 Q 220 132.30763013940305 260 119.88268372835591 T 300 107.45773731730878 Q 300 107.45773731730878 340 121.79526814143173 T 380 136.13279896555468 Q 380 136.13279896555468 420 152.8902012691833 T 460 169.64760357281193 Q 460 169.64760357281193 500 182.97943005687557 T 540 196.3112565409392 Q 540 196.3112565409392 580 208.0520216212608 T 620 219.79278670158237 Q 620 219.79278670158237 660 215.0504880293738 T 700 210.30818935716525 Q 700 210.30818935716525 740 198.87321044923738 T 780 187.4382315413095 L 820 360 L -20 360 Z" fill="url(#trendfill)" opacity="0.5"/><path d="M -20 183.30091506708413 Q -20 183.30091506708413 20 179.38931322540157 T 60 175.477711383719 Q 60 175.477711383719 100 169.68456375645474 T 140 163.89141612919047 Q 140 163.89141612919047 180 148.09952313429676 T 220 132.30763013940305 Q 220 132.30763013940305 260 119.88268372835591 T 300 107.45773731730878 Q 300 107.45773731730878 340 121.79526814143173 T 380 136.13279896555468 Q 380 136.13279896555468 420 152.8902012691833 T 460 169.64760357281193 Q 460 169.64760357281193 500 182.97943005687557 T 540 196.3112565409392 Q 540 196.3112565409392 580 208.0520216212608 T 620 219.79278670158237 Q 620 219.79278670158237 660 215.0504880293738 T 700 210.30818935716525 Q 700 210.30818935716525 740 198.87321044923738 T 780 187.4382315413095" fill="none" stroke="#F0B90B" stroke-width="2.5" opacity="0.85" stroke-linecap="round"/> <line x1="637.4298320570961" y1="92.71769885672256" x2="559.2585357744247" y2="127.31884216191247" stroke="hsl(274 80% 65%)" stroke-width="1" opacity="0.25"/><line x1="637.4298320570961" y1="92.71769885672256" x2="595.1119162887335" y2="165.27574207866564" stroke="hsl(274 80% 65%)" stroke-width="1" opacity="0.25"/><line x1="636.7528458125889" y1="183.6772826150991" x2="715.1911437651142" y2="195.35082209622487" stroke="hsl(274 80% 65%)" stroke-width="1" opacity="0.25"/><line x1="636.7528458125889" y1="183.6772826150991" x2="754.6569865150377" y2="177.02689798315987" stroke="hsl(274 80% 65%)" stroke-width="1" opacity="0.25"/><line x1="715.1911437651142" y1="195.35082209622487" x2="664.4449550332502" y2="123.74283986864612" stroke="hsl(274 80% 65%)" stroke-width="1" opacity="0.25"/><line x1="715.1911437651142" y1="195.35082209622487" x2="754.6569865150377" y2="177.02689798315987" stroke="hsl(274 80% 65%)" stroke-width="1" opacity="0.25"/><line x1="559.2585357744247" y1="127.31884216191247" x2="754.6569865150377" y2="177.02689798315987" stroke="hsl(274 80% 65%)" stroke-width="1" opacity="0.25"/><line x1="664.4449550332502" y1="123.74283986864612" x2="595.1119162887335" y2="165.27574207866564" stroke="hsl(274 80% 65%)" stroke-width="1" opacity="0.25"/><line x1="664.4449550332502" y1="123.74283986864612" x2="754.6569865150377" y2="177.02689798315987" stroke="hsl(274 80% 65%)" stroke-width="1" opacity="0.25"/><circle cx="637.4298320570961" cy="92.71769885672256" r="5.132926236372441" fill="hsl(274 85% 65%)" opacity="0.8"/><circle cx="636.7528458125889" cy="183.6772826150991" r="4.708041477948427" fill="hsl(274 85% 65%)" opacity="0.8"/><circle cx="715.1911437651142" cy="195.35082209622487" r="6.686101829865947" fill="hsl(274 85% 65%)" opacity="0.8"/><circle cx="559.2585357744247" cy="127.31884216191247" r="4.897256688447669" fill="hsl(274 85% 65%)" opacity="0.8"/><circle cx="664.4449550332502" cy="123.74283986864612" r="5.14132880512625" fill="hsl(274 85% 65%)" opacity="0.8"/><circle cx="595.1119162887335" cy="165.27574207866564" r="4.756736344192177" fill="hsl(274 85% 65%)" opacity="0.8"/><circle cx="754.6569865150377" cy="177.02689798315987" r="4.271520402049646" fill="hsl(274 85% 65%)" opacity="0.8"/> <text x="40" y="320" font-family="'JetBrains Mono', monospace" font-size="58" font-weight="700" fill="#ffffff" opacity="0.07">Perceptrader AI</text> </svg>