<svg xmlns="http://www.w3.org/2000/svg" viewBox="0 0 800 360" preserveAspectRatio="xMidYMid slice"> <defs> <linearGradient id="bg" x1="0" y1="0" x2="1" y2="1"><stop offset="0" stop-color="#0e1218"/><stop offset="1" stop-color="#05080b"/></linearGradient> <radialGradient id="glow" cx="30%" cy="25%" r="70%"><stop offset="0" stop-color="hsl(160 70% 50%)" stop-opacity="0.35"/><stop offset="1" stop-color="hsl(160 70% 50%)" stop-opacity="0"/></radialGradient> <linearGradient id="trendfill" x1="0" y1="0" x2="0" y2="1"><stop offset="0" stop-color="#F0B90B" stop-opacity="0.22"/><stop offset="1" stop-color="#F0B90B" stop-opacity="0"/></linearGradient> <linearGradient id="goldgrad" x1="0" y1="0" x2="1" y2="1"><stop offset="0" stop-color="#FCD535"/><stop offset="1" stop-color="#B8860B"/></linearGradient> <pattern id="grid" width="36" height="36" patternUnits="userSpaceOnUse"><path d="M36 0H0V36" fill="none" stroke="#ffffff" stroke-width="0.5" opacity="0.035"/></pattern> </defs> <rect width="800" height="360" fill="url(#bg)"/> <rect width="800" height="360" fill="url(#grid)"/> <rect width="800" height="360" fill="url(#glow)"/> <line x1="41" y1="203.00844609364867" x2="41" y2="291.91051802551374" stroke="#0ECB81" stroke-width="1.5" opacity="0.30"/><rect x="30" y="215.7938417098485" width="22" height="63.331280699465424" rx="2" fill="#0ECB81" opacity="0.42"/><line x1="83" y1="175.27834356576204" x2="83" y2="314.4986320915632" stroke="#0ECB81" stroke-width="1.5" opacity="0.30"/><rect x="72" y="206.23437260789797" width="22" height="77.3082304415293" rx="2" fill="#0ECB81" opacity="0.42"/><line x1="125" y1="210.8465109653771" x2="125" y2="278.8126782490872" stroke="#F6465D" stroke-width="1.5" opacity="0.30"/><rect x="114" y="226.21287288656458" width="22" height="37.23344344133511" rx="2" fill="#F6465D" opacity="0.42"/><line x1="167" y1="175.72846934199333" x2="167" y2="294.55821098340675" stroke="#F6465D" stroke-width="1.5" opacity="0.30"/><rect x="156" y="202.77492865500972" width="22" height="64.73682301538065" rx="2" fill="#F6465D" opacity="0.42"/><line x1="209" y1="237.71505407616496" x2="209" y2="310.1794246113859" stroke="#F6465D" stroke-width="1.5" opacity="0.30"/><rect x="198" y="258.5919271088205" width="22" height="30.710624469909817" rx="2" fill="#F6465D" opacity="0.42"/><line x1="251" y1="190.00595980137587" x2="251" y2="278.92836714861915" stroke="#0ECB81" stroke-width="1.5" opacity="0.30"/><rect x="240" y="201.94945985032246" width="22" height="65.0354072493501" rx="2" fill="#0ECB81" opacity="0.42"/><line x1="293" y1="233.38625407591462" x2="293" y2="285.9322010516189" stroke="#0ECB81" stroke-width="1.5" opacity="0.30"/><rect x="282" y="249.28455433389172" width="22" height="20.749346459750086" rx="2" fill="#0ECB81" opacity="0.42"/><line x1="335" y1="218.1333598047495" x2="335" y2="306.4772608350031" stroke="#0ECB81" stroke-width="1.5" opacity="0.30"/><rect x="324" y="234.80298343626782" width="22" height="55.00465376721695" rx="2" fill="#0ECB81" opacity="0.42"/><line x1="377" y1="231.84200641140342" x2="377" y2="303.22865756368265" stroke="#0ECB81" stroke-width="1.5" opacity="0.30"/><rect x="366" y="254.20790315186605" width="22" height="26.654857671353966" rx="2" fill="#0ECB81" opacity="0.42"/><line x1="419" y1="230.35464975982904" x2="419" y2="301.6041802200489" stroke="#0ECB81" stroke-width="1.5" opacity="0.30"/><rect x="408" y="242.07106841308996" width="22" height="47.816693153698" rx="2" fill="#0ECB81" opacity="0.42"/><line x1="461" y1="215.9848608262837" x2="461" y2="318.0212439461611" stroke="#0ECB81" stroke-width="1.5" opacity="0.30"/><rect x="450" y="234.8778770356439" width="22" height="64.250350701157" rx="2" fill="#0ECB81" opacity="0.42"/><line x1="503" y1="198.22118312120438" x2="503" y2="297.2356351609342" stroke="#0ECB81" stroke-width="1.5" opacity="0.30"/><rect x="492" y="214.2774917888455" width="22" height="66.90183470444754" rx="2" fill="#0ECB81" opacity="0.42"/><line x1="545" y1="209.0989588610828" x2="545" y2="300.4908035523258" stroke="#0ECB81" stroke-width="1.5" opacity="0.30"/><rect x="534" y="237.56929059093818" width="22" height="34.451181231532246" rx="2" fill="#0ECB81" opacity="0.42"/><line x1="587" y1="224.42762389034033" x2="587" y2="319.69645094452426" stroke="#0ECB81" stroke-width="1.5" opacity="0.30"/><rect x="576" y="244.9568948294036" width="22" height="54.21028517605737" rx="2" fill="#0ECB81" opacity="0.42"/><line x1="629" y1="215.06097135320306" x2="629" y2="292.3551670401357" stroke="#F6465D" stroke-width="1.5" opacity="0.30"/><rect x="618" y="235.60102580627427" width="22" height="36.21408678079024" rx="2" fill="#F6465D" opacity="0.42"/><line x1="671" y1="215.39788411557674" x2="671" y2="301.45586203737184" stroke="#F6465D" stroke-width="1.5" opacity="0.30"/><rect x="660" y="227.0024393084459" width="22" height="62.84886753605679" rx="2" fill="#F6465D" opacity="0.42"/><line x1="713" y1="221.30103593692183" x2="713" y2="322.0527461222373" stroke="#F6465D" stroke-width="1.5" opacity="0.30"/><rect x="702" y="244.74618830299005" width="22" height="53.86140545317903" rx="2" fill="#F6465D" opacity="0.42"/><line x1="755" y1="222.62106139212847" x2="755" y2="315.74860583571717" stroke="#0ECB81" stroke-width="1.5" opacity="0.30"/><rect x="744" y="252.13846375746652" width="22" height="34.09273971291259" rx="2" fill="#0ECB81" opacity="0.42"/> <path d="M -20 221.71979230828583 Q -20 221.71979230828583 20 208.6281460954342 T 60 195.53649988258258 Q 60 195.53649988258258 100 181.3864320749417 T 140 167.23636426730081 Q 140 167.23636426730081 180 178.88122988049872 T 220 190.52609549369663 Q 220 190.52609549369663 260 193.72328279074281 T 300 196.920470087789 Q 300 196.920470087789 340 183.36846493766643 T 380 169.81645978754386 Q 380 169.81645978754386 420 166.7063310695812 T 460 163.59620235161856 Q 460 163.59620235161856 500 169.85431461711414 T 540 176.11242688260972 Q 540 176.11242688260972 580 163.69352996814996 T 620 151.2746330536902 Q 620 151.2746330536902 660 155.15047096298076 T 700 159.02630887227133 Q 700 159.02630887227133 740 151.38464980293065 T 780 143.74299073358998 L 820 360 L -20 360 Z" fill="url(#trendfill)" opacity="0.5"/><path d="M -20 221.71979230828583 Q -20 221.71979230828583 20 208.6281460954342 T 60 195.53649988258258 Q 60 195.53649988258258 100 181.3864320749417 T 140 167.23636426730081 Q 140 167.23636426730081 180 178.88122988049872 T 220 190.52609549369663 Q 220 190.52609549369663 260 193.72328279074281 T 300 196.920470087789 Q 300 196.920470087789 340 183.36846493766643 T 380 169.81645978754386 Q 380 169.81645978754386 420 166.7063310695812 T 460 163.59620235161856 Q 460 163.59620235161856 500 169.85431461711414 T 540 176.11242688260972 Q 540 176.11242688260972 580 163.69352996814996 T 620 151.2746330536902 Q 620 151.2746330536902 660 155.15047096298076 T 700 159.02630887227133 Q 700 159.02630887227133 740 151.38464980293065 T 780 143.74299073358998" fill="none" stroke="#F0B90B" stroke-width="2.5" opacity="0.85" stroke-linecap="round"/> <line x1="758.0892172362655" y1="68.66249694721773" x2="769.2484704824165" y2="105.19046391127631" stroke="hsl(160 80% 65%)" stroke-width="1" opacity="0.25"/><line x1="736.4832707354799" y1="122.07604896975681" x2="571.9264232553542" y2="176.49875140050426" stroke="hsl(160 80% 65%)" stroke-width="1" opacity="0.25"/><line x1="571.9264232553542" y1="176.49875140050426" x2="574.4788969028741" y2="89.23666757764295" stroke="hsl(160 80% 65%)" stroke-width="1" opacity="0.25"/><line x1="574.4788969028741" y1="89.23666757764295" x2="681.6065734624863" y2="86.51409480953589" stroke="hsl(160 80% 65%)" stroke-width="1" opacity="0.25"/><circle cx="758.0892172362655" cy="68.66249694721773" r="6.22797024063766" fill="hsl(160 85% 65%)" opacity="0.8"/><circle cx="736.4832707354799" cy="122.07604896975681" r="5.2240629070438445" fill="hsl(160 85% 65%)" opacity="0.8"/><circle cx="571.9264232553542" cy="176.49875140050426" r="6.413015092490241" fill="hsl(160 85% 65%)" opacity="0.8"/><circle cx="723.363851099275" cy="107.74781819200143" r="4.922291649272665" fill="hsl(160 85% 65%)" opacity="0.8"/><circle cx="574.4788969028741" cy="89.23666757764295" r="6.84778694761917" fill="hsl(160 85% 65%)" opacity="0.8"/><circle cx="769.2484704824165" cy="105.19046391127631" r="5.922551215626299" fill="hsl(160 85% 65%)" opacity="0.8"/><circle cx="681.6065734624863" cy="86.51409480953589" r="6.270394284510985" fill="hsl(160 85% 65%)" opacity="0.8"/><g opacity="0.9" fill="url(#goldgrad)"><path d="M600 120 L600 84 L628 106 L656 70 L684 106 L712 84 L712 120 Z"/><rect x="600" y="120" width="112" height="12" rx="3"/></g><circle cx="656" cy="64" r="5" fill="#F0B90B"/> <text x="40" y="320" font-family="'JetBrains Mono', monospace" font-size="58" font-weight="700" fill="#ffffff" opacity="0.07">Quantum Queen</text> </svg>