<svg xmlns="http://www.w3.org/2000/svg" viewBox="0 0 800 360" preserveAspectRatio="xMidYMid slice"> <defs> <linearGradient id="bg" x1="0" y1="0" x2="1" y2="1"><stop offset="0" stop-color="#0e1218"/><stop offset="1" stop-color="#05080b"/></linearGradient> <radialGradient id="glow" cx="30%" cy="25%" r="70%"><stop offset="0" stop-color="hsl(1 70% 50%)" stop-opacity="0.35"/><stop offset="1" stop-color="hsl(1 70% 50%)" stop-opacity="0"/></radialGradient> <linearGradient id="trendfill" x1="0" y1="0" x2="0" y2="1"><stop offset="0" stop-color="#F0B90B" stop-opacity="0.22"/><stop offset="1" stop-color="#F0B90B" stop-opacity="0"/></linearGradient> <linearGradient id="goldgrad" x1="0" y1="0" x2="1" y2="1"><stop offset="0" stop-color="#FCD535"/><stop offset="1" stop-color="#B8860B"/></linearGradient> <pattern id="grid" width="36" height="36" patternUnits="userSpaceOnUse"><path d="M36 0H0V36" fill="none" stroke="#ffffff" stroke-width="0.5" opacity="0.035"/></pattern> </defs> <rect width="800" height="360" fill="url(#bg)"/> <rect width="800" height="360" fill="url(#grid)"/> <rect width="800" height="360" fill="url(#glow)"/> <line x1="41" y1="199.15794468019158" x2="41" y2="321.0287100803107" stroke="#F6465D" stroke-width="1.5" opacity="0.30"/><rect x="30" y="224.6034695515409" width="22" height="70.97971565742046" rx="2" fill="#F6465D" opacity="0.42"/><line x1="83" y1="230.67066618520766" x2="83" y2="284.71202904358506" stroke="#F6465D" stroke-width="1.5" opacity="0.30"/><rect x="72" y="242.597855146043" width="22" height="30.186984936706722" rx="2" fill="#F6465D" opacity="0.42"/><line x1="125" y1="180.9545859033242" x2="125" y2="303.1180758718401" stroke="#0ECB81" stroke-width="1.5" opacity="0.30"/><rect x="114" y="199.49940880108625" width="22" height="85.07384417299181" rx="2" fill="#0ECB81" opacity="0.42"/><line x1="167" y1="230.4171201782301" x2="167" y2="288.9511709958315" stroke="#0ECB81" stroke-width="1.5" opacity="0.30"/><rect x="156" y="244.81865002121776" width="22" height="29.73099113162607" rx="2" fill="#0ECB81" opacity="0.42"/><line x1="209" y1="224.04403923545033" x2="209" y2="298.6245200391859" stroke="#0ECB81" stroke-width="1.5" opacity="0.30"/><rect x="198" y="241.81857786420733" width="22" height="39.031403546221554" rx="2" fill="#0ECB81" opacity="0.42"/><line x1="251" y1="205.2175824167207" x2="251" y2="298.4744472168386" stroke="#0ECB81" stroke-width="1.5" opacity="0.30"/><rect x="240" y="217.00258598010987" width="22" height="69.68685767333955" rx="2" fill="#0ECB81" opacity="0.42"/><line x1="293" y1="179.40566716436297" x2="293" y2="288.73048810847104" stroke="#F6465D" stroke-width="1.5" opacity="0.30"/><rect x="282" y="203.20589327532798" width="22" height="61.72436872217804" rx="2" fill="#F6465D" opacity="0.42"/><line x1="335" y1="206.15969175565988" x2="335" y2="312.5850918069482" stroke="#0ECB81" stroke-width="1.5" opacity="0.30"/><rect x="324" y="232.6967402016744" width="22" height="53.35130315925926" rx="2" fill="#0ECB81" opacity="0.42"/><line x1="377" y1="200.85843178723007" x2="377" y2="297.20668244175613" stroke="#F6465D" stroke-width="1.5" opacity="0.30"/><rect x="366" y="229.19360067043453" width="22" height="39.677912888117135" rx="2" fill="#F6465D" opacity="0.42"/><line x1="419" y1="188.63553040940315" x2="419" y2="285.03983007743955" stroke="#F6465D" stroke-width="1.5" opacity="0.30"/><rect x="408" y="210.20465959142894" width="22" height="53.26604130398482" rx="2" fill="#F6465D" opacity="0.42"/><line x1="461" y1="199.92808231059462" x2="461" y2="279.2362809870392" stroke="#F6465D" stroke-width="1.5" opacity="0.30"/><rect x="450" y="213.59580603707582" width="22" height="51.97275122348219" rx="2" fill="#F6465D" opacity="0.42"/><line x1="503" y1="196.08381145168096" x2="503" y2="290.5605973005295" stroke="#F6465D" stroke-width="1.5" opacity="0.30"/><rect x="492" y="214.79339203145355" width="22" height="57.05762468930334" rx="2" fill="#F6465D" opacity="0.42"/><line x1="545" y1="228.46434255037457" x2="545" y2="300.6141560282558" stroke="#F6465D" stroke-width="1.5" opacity="0.30"/><rect x="534" y="253.52800696436316" width="22" height="22.022484649904072" rx="2" fill="#F6465D" opacity="0.42"/><line x1="587" y1="215.4820663155988" x2="587" y2="317.7212574593723" stroke="#0ECB81" stroke-width="1.5" opacity="0.30"/><rect x="576" y="241.52551763039082" width="22" height="50.15228851418942" rx="2" fill="#0ECB81" opacity="0.42"/><line x1="629" y1="205.0080984318629" x2="629" y2="321.321092935279" stroke="#F6465D" stroke-width="1.5" opacity="0.30"/><rect x="618" y="235.05162389297038" width="22" height="56.225943581201136" rx="2" fill="#F6465D" opacity="0.42"/><line x1="671" y1="172.5888322936371" x2="671" y2="290.20932199805975" stroke="#0ECB81" stroke-width="1.5" opacity="0.30"/><rect x="660" y="188.71617997344583" width="22" height="85.36579434480518" rx="2" fill="#0ECB81" opacity="0.42"/><line x1="713" y1="202.90858548972756" x2="713" y2="325.47300891391933" stroke="#0ECB81" stroke-width="1.5" opacity="0.30"/><rect x="702" y="229.44353136513382" width="22" height="69.49453167337924" rx="2" fill="#0ECB81" opacity="0.42"/><line x1="755" y1="200.93584003765136" x2="755" y2="302.4626685716212" stroke="#0ECB81" stroke-width="1.5" opacity="0.30"/><rect x="744" y="222.01511737238616" width="22" height="59.368273864500225" rx="2" fill="#0ECB81" opacity="0.42"/> <path d="M -20 168.98805633420125 Q -20 168.98805633420125 20 184.4852785486728 T 60 199.98250076314434 Q 60 199.98250076314434 100 197.05142306745984 T 140 194.12034537177533 Q 140 194.12034537177533 180 210.2813151665032 T 220 226.44228496123105 Q 220 226.44228496123105 260 237.95223340508528 T 300 249.4621818489395 Q 300 249.4621818489395 340 239.65806735679507 T 380 229.85395286465064 Q 380 229.85395286465064 420 214.4412951974664 T 460 199.02863753028214 Q 460 199.02863753028214 500 208.2875467184931 T 540 217.54645590670407 Q 540 217.54645590670407 580 221.6253418114502 T 620 225.70422771619633 Q 620 225.70422771619633 660 236.52720431797206 T 700 247.3501809197478 Q 700 247.3501809197478 740 240.7406307256315 T 780 234.13108053151518 L 820 360 L -20 360 Z" fill="url(#trendfill)" opacity="0.5"/><path d="M -20 168.98805633420125 Q -20 168.98805633420125 20 184.4852785486728 T 60 199.98250076314434 Q 60 199.98250076314434 100 197.05142306745984 T 140 194.12034537177533 Q 140 194.12034537177533 180 210.2813151665032 T 220 226.44228496123105 Q 220 226.44228496123105 260 237.95223340508528 T 300 249.4621818489395 Q 300 249.4621818489395 340 239.65806735679507 T 380 229.85395286465064 Q 380 229.85395286465064 420 214.4412951974664 T 460 199.02863753028214 Q 460 199.02863753028214 500 208.2875467184931 T 540 217.54645590670407 Q 540 217.54645590670407 580 221.6253418114502 T 620 225.70422771619633 Q 620 225.70422771619633 660 236.52720431797206 T 700 247.3501809197478 Q 700 247.3501809197478 740 240.7406307256315 T 780 234.13108053151518" fill="none" stroke="#F0B90B" stroke-width="2.5" opacity="0.85" stroke-linecap="round"/> <line x1="712.8004924417473" y1="150.41993472259492" x2="666.1510802316479" y2="174.6423157863319" stroke="hsl(1 80% 65%)" stroke-width="1" opacity="0.25"/><line x1="712.8004924417473" y1="150.41993472259492" x2="595.3448080294766" y2="83.18319448735565" stroke="hsl(1 80% 65%)" stroke-width="1" opacity="0.25"/><line x1="712.8004924417473" y1="150.41993472259492" x2="681.3952011032961" y2="129.1818028781563" stroke="hsl(1 80% 65%)" stroke-width="1" opacity="0.25"/><line x1="712.8004924417473" y1="150.41993472259492" x2="656.2971372087486" y2="80.3965387167409" stroke="hsl(1 80% 65%)" stroke-width="1" opacity="0.25"/><line x1="658.4566289535724" y1="137.7855948638171" x2="666.1510802316479" y2="174.6423157863319" stroke="hsl(1 80% 65%)" stroke-width="1" opacity="0.25"/><line x1="658.4566289535724" y1="137.7855948638171" x2="595.3448080294766" y2="83.18319448735565" stroke="hsl(1 80% 65%)" stroke-width="1" opacity="0.25"/><line x1="658.4566289535724" y1="137.7855948638171" x2="681.3952011032961" y2="129.1818028781563" stroke="hsl(1 80% 65%)" stroke-width="1" opacity="0.25"/><line x1="658.4566289535724" y1="137.7855948638171" x2="656.2971372087486" y2="80.3965387167409" stroke="hsl(1 80% 65%)" stroke-width="1" opacity="0.25"/><line x1="666.1510802316479" y1="174.6423157863319" x2="595.3448080294766" y2="83.18319448735565" stroke="hsl(1 80% 65%)" stroke-width="1" opacity="0.25"/><circle cx="712.8004924417473" cy="150.41993472259492" r="4.108459940413013" fill="hsl(1 85% 65%)" opacity="0.8"/><circle cx="658.4566289535724" cy="137.7855948638171" r="5.487806879682466" fill="hsl(1 85% 65%)" opacity="0.8"/><circle cx="620.8080329862423" cy="86.13177745137364" r="6.876481056213379" fill="hsl(1 85% 65%)" opacity="0.8"/><circle cx="666.1510802316479" cy="174.6423157863319" r="4.239594078622758" fill="hsl(1 85% 65%)" opacity="0.8"/><circle cx="595.3448080294766" cy="83.18319448735565" r="5.899758608778939" fill="hsl(1 85% 65%)" opacity="0.8"/><circle cx="681.3952011032961" cy="129.1818028781563" r="6.628922266187146" fill="hsl(1 85% 65%)" opacity="0.8"/><circle cx="656.2971372087486" cy="80.3965387167409" r="6.543329078238457" fill="hsl(1 85% 65%)" opacity="0.8"/><g opacity="0.9" fill="url(#goldgrad)"><path d="M600 120 L600 84 L628 106 L656 70 L684 106 L712 84 L712 120 Z"/><rect x="600" y="120" width="112" height="12" rx="3"/></g><circle cx="656" cy="64" r="5" fill="#F0B90B"/> <text x="40" y="320" font-family="'JetBrains Mono', monospace" font-size="58" font-weight="700" fill="#ffffff" opacity="0.07">Quantum King EA</text> </svg>