<svg xmlns="http://www.w3.org/2000/svg" viewBox="0 0 800 360" preserveAspectRatio="xMidYMid slice"> <defs> <linearGradient id="bg" x1="0" y1="0" x2="1" y2="1"><stop offset="0" stop-color="#0e1218"/><stop offset="1" stop-color="#05080b"/></linearGradient> <radialGradient id="glow" cx="30%" cy="25%" r="70%"><stop offset="0" stop-color="hsl(72 70% 50%)" stop-opacity="0.35"/><stop offset="1" stop-color="hsl(72 70% 50%)" stop-opacity="0"/></radialGradient> <linearGradient id="trendfill" x1="0" y1="0" x2="0" y2="1"><stop offset="0" stop-color="#F0B90B" stop-opacity="0.22"/><stop offset="1" stop-color="#F0B90B" stop-opacity="0"/></linearGradient> <linearGradient id="goldgrad" x1="0" y1="0" x2="1" y2="1"><stop offset="0" stop-color="#FCD535"/><stop offset="1" stop-color="#B8860B"/></linearGradient> <pattern id="grid" width="36" height="36" patternUnits="userSpaceOnUse"><path d="M36 0H0V36" fill="none" stroke="#ffffff" stroke-width="0.5" opacity="0.035"/></pattern> </defs> <rect width="800" height="360" fill="url(#bg)"/> <rect width="800" height="360" fill="url(#grid)"/> <rect width="800" height="360" fill="url(#glow)"/> <line x1="41" y1="197.46379515901208" x2="41" y2="310.61185700586066" stroke="#0ECB81" stroke-width="1.5" opacity="0.30"/><rect x="30" y="211.46672038873658" width="22" height="85.14221138739958" rx="2" fill="#0ECB81" opacity="0.42"/><line x1="83" y1="187.9693537801504" x2="83" y2="309.75856392784044" stroke="#0ECB81" stroke-width="1.5" opacity="0.30"/><rect x="72" y="209.6218885066919" width="22" height="78.48414069460705" rx="2" fill="#0ECB81" opacity="0.42"/><line x1="125" y1="258.7426590286195" x2="125" y2="315.9258587411605" stroke="#0ECB81" stroke-width="1.5" opacity="0.30"/><rect x="114" y="278.2555157742463" width="22" height="18.1574862212874" rx="2" fill="#0ECB81" opacity="0.42"/><line x1="167" y1="217.00299782305956" x2="167" y2="310.0776119711809" stroke="#F6465D" stroke-width="1.5" opacity="0.30"/><rect x="156" y="235.0841935495846" width="22" height="56.91222269507125" rx="2" fill="#F6465D" opacity="0.42"/><line x1="209" y1="160.98569406941533" x2="209" y2="289.89118749042973" stroke="#F6465D" stroke-width="1.5" opacity="0.30"/><rect x="198" y="185.64147638669237" width="22" height="79.59392878646031" rx="2" fill="#F6465D" opacity="0.42"/><line x1="251" y1="229.61471608281136" x2="251" y2="299.14306263579056" stroke="#F6465D" stroke-width="1.5" opacity="0.30"/><rect x="240" y="255.35612910566851" width="22" height="18.045520507264882" rx="2" fill="#F6465D" opacity="0.42"/><line x1="293" y1="162.34325275942683" x2="293" y2="278.6549952006899" stroke="#F6465D" stroke-width="1.5" opacity="0.30"/><rect x="282" y="180.11670198803768" width="22" height="80.76484398404136" rx="2" fill="#F6465D" opacity="0.42"/><line x1="335" y1="184.34975849837065" x2="335" y2="310.0194873022847" stroke="#F6465D" stroke-width="1.5" opacity="0.30"/><rect x="324" y="204.8536840970628" width="22" height="84.66187760652974" rx="2" fill="#F6465D" opacity="0.42"/><line x1="377" y1="239.27696687355638" x2="377" y2="298.8232961236499" stroke="#0ECB81" stroke-width="1.5" opacity="0.30"/><rect x="366" y="252.1704847230576" width="22" height="33.759293551091105" rx="2" fill="#0ECB81" opacity="0.42"/><line x1="419" y1="212.70137305557728" x2="419" y2="305.587741530966" stroke="#0ECB81" stroke-width="1.5" opacity="0.30"/><rect x="408" y="235.55449295369908" width="22" height="47.18012867914513" rx="2" fill="#0ECB81" opacity="0.42"/><line x1="461" y1="200.5206849835813" x2="461" y2="294.14456056570634" stroke="#F6465D" stroke-width="1.5" opacity="0.30"/><rect x="450" y="214.19946536934003" width="22" height="66.26631481060758" rx="2" fill="#F6465D" opacity="0.42"/><line x1="503" y1="189.4467432871461" x2="503" y2="316.66605881182477" stroke="#0ECB81" stroke-width="1.5" opacity="0.30"/><rect x="492" y="218.9704918633215" width="22" height="68.17181837232783" rx="2" fill="#0ECB81" opacity="0.42"/><line x1="545" y1="209.79140995815396" x2="545" y2="294.0683086379431" stroke="#0ECB81" stroke-width="1.5" opacity="0.30"/><rect x="534" y="221.54278958728537" width="22" height="60.77413942152634" rx="2" fill="#0ECB81" opacity="0.42"/><line x1="587" y1="197.73292577266693" x2="587" y2="306.0061443145387" stroke="#F6465D" stroke-width="1.5" opacity="0.30"/><rect x="576" y="221.24557502148673" width="22" height="61.24792004423216" rx="2" fill="#F6465D" opacity="0.42"/><line x1="629" y1="187.2502364628017" x2="629" y2="294.17870400613174" stroke="#F6465D" stroke-width="1.5" opacity="0.30"/><rect x="618" y="206.6422641701065" width="22" height="68.14441212872043" rx="2" fill="#F6465D" opacity="0.42"/><line x1="671" y1="222.91278763860464" x2="671" y2="314.164268638473" stroke="#F6465D" stroke-width="1.5" opacity="0.30"/><rect x="660" y="241.37825088156387" width="22" height="54.3205545139499" rx="2" fill="#F6465D" opacity="0.42"/><line x1="713" y1="229.71328845992684" x2="713" y2="308.5031476407312" stroke="#F6465D" stroke-width="1.5" opacity="0.30"/><rect x="702" y="256.3275132938288" width="22" height="25.5614095130004" rx="2" fill="#F6465D" opacity="0.42"/><line x1="755" y1="175.13094405829906" x2="755" y2="297.24736156268045" stroke="#F6465D" stroke-width="1.5" opacity="0.30"/><rect x="744" y="202.56929840473458" width="22" height="67.23970881151035" rx="2" fill="#F6465D" opacity="0.42"/> <path d="M -20 230.70617004297674 Q -20 230.70617004297674 20 232.81394201912917 T 60 234.9217139952816 Q 60 234.9217139952816 100 242.4608569976408 T 140 250 Q 140 250 180 250 T 220 250 Q 220 250 260 236.031534941867 T 300 222.063069883734 Q 300 222.063069883734 340 221.02456009131856 T 380 219.98605029890314 Q 380 219.98605029890314 420 217.73620906285942 T 460 215.4863678268157 Q 460 215.4863678268157 500 201.76532120094635 T 540 188.044274575077 Q 540 188.044274575077 580 176.17172844707966 T 620 164.29918231908232 Q 620 164.29918231908232 660 177.71785659831949 T 700 191.13653087755665 Q 700 191.13653087755665 740 178.20355717092752 T 780 165.2705834642984 L 820 360 L -20 360 Z" fill="url(#trendfill)" opacity="0.5"/><path d="M -20 230.70617004297674 Q -20 230.70617004297674 20 232.81394201912917 T 60 234.9217139952816 Q 60 234.9217139952816 100 242.4608569976408 T 140 250 Q 140 250 180 250 T 220 250 Q 220 250 260 236.031534941867 T 300 222.063069883734 Q 300 222.063069883734 340 221.02456009131856 T 380 219.98605029890314 Q 380 219.98605029890314 420 217.73620906285942 T 460 215.4863678268157 Q 460 215.4863678268157 500 201.76532120094635 T 540 188.044274575077 Q 540 188.044274575077 580 176.17172844707966 T 620 164.29918231908232 Q 620 164.29918231908232 660 177.71785659831949 T 700 191.13653087755665 Q 700 191.13653087755665 740 178.20355717092752 T 780 165.2705834642984" fill="none" stroke="#F0B90B" stroke-width="2.5" opacity="0.85" stroke-linecap="round"/> <line x1="751.4651500899345" y1="97.77114038588479" x2="666.3229134958237" y2="109.92321941303089" stroke="hsl(72 80% 65%)" stroke-width="1" opacity="0.25"/><line x1="682.3868832411245" y1="109.42776071606204" x2="584.1846852749586" y2="152.75191363180056" stroke="hsl(72 80% 65%)" stroke-width="1" opacity="0.25"/><line x1="682.3868832411245" y1="109.42776071606204" x2="562.1538587613031" y2="73.5110598965548" stroke="hsl(72 80% 65%)" stroke-width="1" opacity="0.25"/><line x1="682.3868832411245" y1="109.42776071606204" x2="589.3789624655619" y2="51.16975427372381" stroke="hsl(72 80% 65%)" stroke-width="1" opacity="0.25"/><line x1="562.1538587613031" y1="73.5110598965548" x2="666.3229134958237" y2="109.92321941303089" stroke="hsl(72 80% 65%)" stroke-width="1" opacity="0.25"/><line x1="562.1538587613031" y1="73.5110598965548" x2="589.3789624655619" y2="51.16975427372381" stroke="hsl(72 80% 65%)" stroke-width="1" opacity="0.25"/><circle cx="751.4651500899345" cy="97.77114038588479" r="4.4508826322853565" fill="hsl(72 85% 65%)" opacity="0.8"/><circle cx="682.3868832411245" cy="109.42776071606204" r="5.09456827538088" fill="hsl(72 85% 65%)" opacity="0.8"/><circle cx="584.1846852749586" cy="152.75191363180056" r="4.8740541122388095" fill="hsl(72 85% 65%)" opacity="0.8"/><circle cx="562.1538587613031" cy="73.5110598965548" r="5.78215866885148" fill="hsl(72 85% 65%)" opacity="0.8"/><circle cx="666.3229134958237" cy="109.92321941303089" r="6.893436541315168" fill="hsl(72 85% 65%)" opacity="0.8"/><circle cx="589.3789624655619" cy="51.16975427372381" r="4.672071090899408" fill="hsl(72 85% 65%)" opacity="0.8"/><circle cx="724.9854212813079" cy="169.12211055168882" r="4.840783255407587" fill="hsl(72 85% 65%)" opacity="0.8"/><g opacity="0.9"><g><rect x="630" y="250" width="70" height="22" rx="3" fill="url(#goldgrad)"/><rect x="630" y="250" width="70" height="6" rx="3" fill="#fff" opacity="0.25"/></g><g><rect x="612" y="276" width="106" height="22" rx="3" fill="url(#goldgrad)"/><rect x="612" y="276" width="106" height="6" rx="3" fill="#fff" opacity="0.25"/></g><g><rect x="660" y="224" width="70" height="22" rx="3" fill="url(#goldgrad)"/><rect x="660" y="224" width="70" height="6" rx="3" fill="#fff" opacity="0.25"/></g></g><g opacity="0.9" fill="url(#goldgrad)"><path d="M600 120 L600 84 L628 106 L656 70 L684 106 L712 84 L712 120 Z"/><rect x="600" y="120" width="112" height="12" rx="3"/></g><circle cx="656" cy="64" r="5" fill="#F0B90B"/> <text x="40" y="320" font-family="'JetBrains Mono', monospace" font-size="58" font-weight="700" fill="#ffffff" opacity="0.07">Quantum Gold Emperor</text> </svg>