<svg xmlns="http://www.w3.org/2000/svg" viewBox="0 0 800 360" preserveAspectRatio="xMidYMid slice"> <defs> <linearGradient id="bg" x1="0" y1="0" x2="1" y2="1"><stop offset="0" stop-color="#0e1218"/><stop offset="1" stop-color="#05080b"/></linearGradient> <radialGradient id="glow" cx="30%" cy="25%" r="70%"><stop offset="0" stop-color="hsl(5 70% 50%)" stop-opacity="0.35"/><stop offset="1" stop-color="hsl(5 70% 50%)" stop-opacity="0"/></radialGradient> <linearGradient id="trendfill" x1="0" y1="0" x2="0" y2="1"><stop offset="0" stop-color="#F0B90B" stop-opacity="0.22"/><stop offset="1" stop-color="#F0B90B" stop-opacity="0"/></linearGradient> <linearGradient id="goldgrad" x1="0" y1="0" x2="1" y2="1"><stop offset="0" stop-color="#FCD535"/><stop offset="1" stop-color="#B8860B"/></linearGradient> <pattern id="grid" width="36" height="36" patternUnits="userSpaceOnUse"><path d="M36 0H0V36" fill="none" stroke="#ffffff" stroke-width="0.5" opacity="0.035"/></pattern> </defs> <rect width="800" height="360" fill="url(#bg)"/> <rect width="800" height="360" fill="url(#grid)"/> <rect width="800" height="360" fill="url(#glow)"/> <line x1="41" y1="243.95807149726897" x2="41" y2="304.43148240819573" stroke="#F6465D" stroke-width="1.5" opacity="0.30"/><rect x="30" y="263.88142612110823" width="22" height="20.62670166324824" rx="2" fill="#F6465D" opacity="0.42"/><line x1="83" y1="211.3671714598313" x2="83" y2="306.1130614820868" stroke="#0ECB81" stroke-width="1.5" opacity="0.30"/><rect x="72" y="231.36842851806432" width="22" height="54.743375905789435" rx="2" fill="#0ECB81" opacity="0.42"/><line x1="125" y1="191.95227672625333" x2="125" y2="277.80446015298367" stroke="#0ECB81" stroke-width="1.5" opacity="0.30"/><rect x="114" y="206.8932890733704" width="22" height="55.9701587324962" rx="2" fill="#0ECB81" opacity="0.42"/><line x1="167" y1="251.02264385018498" x2="167" y2="305.1016233023256" stroke="#F6465D" stroke-width="1.5" opacity="0.30"/><rect x="156" y="264.93177539948374" width="22" height="26.260716353543103" rx="2" fill="#F6465D" opacity="0.42"/><line x1="209" y1="206.55352975148708" x2="209" y2="298.3068175278604" stroke="#F6465D" stroke-width="1.5" opacity="0.30"/><rect x="198" y="236.11997157614678" width="22" height="32.62040412705392" rx="2" fill="#F6465D" opacity="0.42"/><line x1="251" y1="192.6879007006064" x2="251" y2="302.67997391708195" stroke="#0ECB81" stroke-width="1.5" opacity="0.30"/><rect x="240" y="223.3144588144496" width="22" height="48.73895698878914" rx="2" fill="#0ECB81" opacity="0.42"/><line x1="293" y1="206.54673505295068" x2="293" y2="286.28964019566774" stroke="#F6465D" stroke-width="1.5" opacity="0.30"/><rect x="282" y="225.16226174589247" width="22" height="42.511851756833494" rx="2" fill="#F6465D" opacity="0.42"/><line x1="335" y1="181.78541973326355" x2="335" y2="300.30729225091636" stroke="#0ECB81" stroke-width="1.5" opacity="0.30"/><rect x="324" y="206.08681033644825" width="22" height="69.91909131128341" rx="2" fill="#0ECB81" opacity="0.42"/><line x1="377" y1="171.3337404699996" x2="377" y2="300.088755030185" stroke="#0ECB81" stroke-width="1.5" opacity="0.30"/><rect x="366" y="194.09616742562503" width="22" height="83.23016064893454" rx="2" fill="#0ECB81" opacity="0.42"/><line x1="419" y1="266.7569657796994" x2="419" y2="312.8864828143269" stroke="#F6465D" stroke-width="1.5" opacity="0.30"/><rect x="408" y="280.3197718905285" width="22" height="19.003904812969267" rx="2" fill="#F6465D" opacity="0.42"/><line x1="461" y1="214.67552470136434" x2="461" y2="287.5364488661289" stroke="#0ECB81" stroke-width="1.5" opacity="0.30"/><rect x="450" y="226.67994743492454" width="22" height="48.852078697644174" rx="2" fill="#0ECB81" opacity="0.42"/><line x1="503" y1="229.68077828083187" x2="503" y2="304.96339445374906" stroke="#F6465D" stroke-width="1.5" opacity="0.30"/><rect x="492" y="240.60442700330168" width="22" height="53.435318727977574" rx="2" fill="#F6465D" opacity="0.42"/><line x1="545" y1="206.18438480515033" x2="545" y2="307.84818724915385" stroke="#0ECB81" stroke-width="1.5" opacity="0.30"/><rect x="534" y="228.1861428199336" width="22" height="57.660286414436996" rx="2" fill="#0ECB81" opacity="0.42"/><line x1="587" y1="224.63875878695399" x2="587" y2="297.30103910155594" stroke="#0ECB81" stroke-width="1.5" opacity="0.30"/><rect x="576" y="249.69653205294162" width="22" height="22.54673378262669" rx="2" fill="#0ECB81" opacity="0.42"/><line x1="629" y1="202.56612369883806" x2="629" y2="291.8843331858516" stroke="#0ECB81" stroke-width="1.5" opacity="0.30"/><rect x="618" y="213.85860810335726" width="22" height="66.73324067797512" rx="2" fill="#0ECB81" opacity="0.42"/><line x1="671" y1="203.8336584577337" x2="671" y2="293.8288105260581" stroke="#0ECB81" stroke-width="1.5" opacity="0.30"/><rect x="660" y="229.78604751918465" width="22" height="38.09037394542247" rx="2" fill="#0ECB81" opacity="0.42"/><line x1="713" y1="216.61223765928298" x2="713" y2="272.7868658937514" stroke="#0ECB81" stroke-width="1.5" opacity="0.30"/><rect x="702" y="227.9945425344631" width="22" height="33.41001848410815" rx="2" fill="#0ECB81" opacity="0.42"/><line x1="755" y1="197.45626556221396" x2="755" y2="302.9667030815035" stroke="#0ECB81" stroke-width="1.5" opacity="0.30"/><rect x="744" y="224.3916692333296" width="22" height="51.63963017705828" rx="2" fill="#0ECB81" opacity="0.42"/> <path d="M -20 186.46969412686303 Q -20 186.46969412686303 20 188.5403315210715 T 60 190.61096891527995 Q 60 190.61096891527995 100 201.58194280345924 T 140 212.55291669163853 Q 140 212.55291669163853 180 221.12651736941189 T 220 229.70011804718524 Q 220 229.70011804718524 260 239.85005902359262 T 300 250 Q 300 250 340 241.57780832378194 T 380 233.15561664756387 Q 380 233.15561664756387 420 227.81813882640563 T 460 222.48066100524738 Q 460 222.48066100524738 500 230.4727766267024 T 540 238.4648922481574 Q 540 238.4648922481574 580 242.98207370447926 T 620 247.4992551608011 Q 620 247.4992551608011 660 237.2252183384262 T 700 226.9511815160513 Q 700 226.9511815160513 740 229.07179696834646 T 780 231.19241242064163 L 820 360 L -20 360 Z" fill="url(#trendfill)" opacity="0.5"/><path d="M -20 186.46969412686303 Q -20 186.46969412686303 20 188.5403315210715 T 60 190.61096891527995 Q 60 190.61096891527995 100 201.58194280345924 T 140 212.55291669163853 Q 140 212.55291669163853 180 221.12651736941189 T 220 229.70011804718524 Q 220 229.70011804718524 260 239.85005902359262 T 300 250 Q 300 250 340 241.57780832378194 T 380 233.15561664756387 Q 380 233.15561664756387 420 227.81813882640563 T 460 222.48066100524738 Q 460 222.48066100524738 500 230.4727766267024 T 540 238.4648922481574 Q 540 238.4648922481574 580 242.98207370447926 T 620 247.4992551608011 Q 620 247.4992551608011 660 237.2252183384262 T 700 226.9511815160513 Q 700 226.9511815160513 740 229.07179696834646 T 780 231.19241242064163" fill="none" stroke="#F0B90B" stroke-width="2.5" opacity="0.85" stroke-linecap="round"/> <line x1="619.1833468829282" y1="92.23865636158735" x2="670.1653828914277" y2="140.16499184072018" stroke="hsl(5 80% 65%)" stroke-width="1" opacity="0.25"/><line x1="619.1833468829282" y1="92.23865636158735" x2="679.3799606733955" y2="65.21881574299186" stroke="hsl(5 80% 65%)" stroke-width="1" opacity="0.25"/><line x1="670.1653828914277" y1="140.16499184072018" x2="568.2959350408055" y2="164.50180250685662" stroke="hsl(5 80% 65%)" stroke-width="1" opacity="0.25"/><line x1="670.1653828914277" y1="140.16499184072018" x2="722.8823476540856" y2="156.97253299877048" stroke="hsl(5 80% 65%)" stroke-width="1" opacity="0.25"/><line x1="568.2959350408055" y1="164.50180250685662" x2="690.616146211978" y2="66.34943033568561" stroke="hsl(5 80% 65%)" stroke-width="1" opacity="0.25"/><line x1="568.2959350408055" y1="164.50180250685662" x2="572.1075446275063" y2="144.5761306444183" stroke="hsl(5 80% 65%)" stroke-width="1" opacity="0.25"/><line x1="568.2959350408055" y1="164.50180250685662" x2="679.3799606733955" y2="65.21881574299186" stroke="hsl(5 80% 65%)" stroke-width="1" opacity="0.25"/><line x1="690.616146211978" y1="66.34943033568561" x2="572.1075446275063" y2="144.5761306444183" stroke="hsl(5 80% 65%)" stroke-width="1" opacity="0.25"/><line x1="572.1075446275063" y1="144.5761306444183" x2="722.8823476540856" y2="156.97253299877048" stroke="hsl(5 80% 65%)" stroke-width="1" opacity="0.25"/><line x1="572.1075446275063" y1="144.5761306444183" x2="679.3799606733955" y2="65.21881574299186" stroke="hsl(5 80% 65%)" stroke-width="1" opacity="0.25"/><line x1="722.8823476540856" y1="156.97253299877048" x2="679.3799606733955" y2="65.21881574299186" stroke="hsl(5 80% 65%)" stroke-width="1" opacity="0.25"/><circle cx="619.1833468829282" cy="92.23865636158735" r="4.879864434944466" fill="hsl(5 85% 65%)" opacity="0.8"/><circle cx="670.1653828914277" cy="140.16499184072018" r="6.577292775502428" fill="hsl(5 85% 65%)" opacity="0.8"/><circle cx="568.2959350408055" cy="164.50180250685662" r="4.254815989173949" fill="hsl(5 85% 65%)" opacity="0.8"/><circle cx="690.616146211978" cy="66.34943033568561" r="6.866526886820793" fill="hsl(5 85% 65%)" opacity="0.8"/><circle cx="572.1075446275063" cy="144.5761306444183" r="4.6719298649113625" fill="hsl(5 85% 65%)" opacity="0.8"/><circle cx="722.8823476540856" cy="156.97253299877048" r="6.08991007716395" fill="hsl(5 85% 65%)" opacity="0.8"/><circle cx="679.3799606733955" cy="65.21881574299186" r="5.279395241755992" fill="hsl(5 85% 65%)" opacity="0.8"/> <text x="40" y="320" font-family="'JetBrains Mono', monospace" font-size="58" font-weight="700" fill="#ffffff" opacity="0.07">Quantum Athena</text> </svg>