<svg xmlns="http://www.w3.org/2000/svg" viewBox="0 0 800 360" preserveAspectRatio="xMidYMid slice"> <defs> <linearGradient id="bg" x1="0" y1="0" x2="1" y2="1"><stop offset="0" stop-color="#0e1218"/><stop offset="1" stop-color="#05080b"/></linearGradient> <radialGradient id="glow" cx="30%" cy="25%" r="70%"><stop offset="0" stop-color="hsl(81 70% 50%)" stop-opacity="0.35"/><stop offset="1" stop-color="hsl(81 70% 50%)" stop-opacity="0"/></radialGradient> <linearGradient id="trendfill" x1="0" y1="0" x2="0" y2="1"><stop offset="0" stop-color="#F0B90B" stop-opacity="0.22"/><stop offset="1" stop-color="#F0B90B" stop-opacity="0"/></linearGradient> <linearGradient id="goldgrad" x1="0" y1="0" x2="1" y2="1"><stop offset="0" stop-color="#FCD535"/><stop offset="1" stop-color="#B8860B"/></linearGradient> <pattern id="grid" width="36" height="36" patternUnits="userSpaceOnUse"><path d="M36 0H0V36" fill="none" stroke="#ffffff" stroke-width="0.5" opacity="0.035"/></pattern> </defs> <rect width="800" height="360" fill="url(#bg)"/> <rect width="800" height="360" fill="url(#grid)"/> <rect width="800" height="360" fill="url(#glow)"/> <line x1="41" y1="229.74130749795586" x2="41" y2="283.70630486123264" stroke="#F6465D" stroke-width="1.5" opacity="0.30"/><rect x="30" y="242.04973894450814" width="22" height="29.348134470172226" rx="2" fill="#F6465D" opacity="0.42"/><line x1="83" y1="158.14249106962234" x2="83" y2="294.24729937687516" stroke="#0ECB81" stroke-width="1.5" opacity="0.30"/><rect x="72" y="188.91717713605613" width="22" height="74.55543617438525" rx="2" fill="#0ECB81" opacity="0.42"/><line x1="125" y1="181.5961838895455" x2="125" y2="286.142766142264" stroke="#0ECB81" stroke-width="1.5" opacity="0.30"/><rect x="114" y="198.62473626900464" width="22" height="70.48947749380022" rx="2" fill="#0ECB81" opacity="0.42"/><line x1="167" y1="198.6279663639143" x2="167" y2="319.9041544944048" stroke="#F6465D" stroke-width="1.5" opacity="0.30"/><rect x="156" y="226.1297131916508" width="22" height="66.27269447501749" rx="2" fill="#F6465D" opacity="0.42"/><line x1="209" y1="233.10739778075367" x2="209" y2="290.3533614631742" stroke="#F6465D" stroke-width="1.5" opacity="0.30"/><rect x="198" y="245.1028218055144" width="22" height="33.255115632899106" rx="2" fill="#F6465D" opacity="0.42"/><line x1="251" y1="182.31613154429942" x2="251" y2="305.4619651697576" stroke="#0ECB81" stroke-width="1.5" opacity="0.30"/><rect x="240" y="201.79110810440034" width="22" height="84.19588050525635" rx="2" fill="#0ECB81" opacity="0.42"/><line x1="293" y1="254.88712415937334" x2="293" y2="312.94631760008633" stroke="#F6465D" stroke-width="1.5" opacity="0.30"/><rect x="282" y="272.4843808384612" width="22" height="22.864680082537234" rx="2" fill="#F6465D" opacity="0.42"/><line x1="335" y1="193.05243796575814" x2="335" y2="295.9622467532754" stroke="#F6465D" stroke-width="1.5" opacity="0.30"/><rect x="324" y="210.9914078032598" width="22" height="67.03186911251396" rx="2" fill="#F6465D" opacity="0.42"/><line x1="377" y1="198.63713762257248" x2="377" y2="286.7431181650609" stroke="#0ECB81" stroke-width="1.5" opacity="0.30"/><rect x="366" y="215.03212775383145" width="22" height="55.31600027997047" rx="2" fill="#0ECB81" opacity="0.42"/><line x1="419" y1="221.23678034264594" x2="419" y2="310.52500580623746" stroke="#0ECB81" stroke-width="1.5" opacity="0.30"/><rect x="408" y="232.95212794374675" width="22" height="65.85753026138991" rx="2" fill="#0ECB81" opacity="0.42"/><line x1="461" y1="186.01599987689406" x2="461" y2="295.6027223560959" stroke="#0ECB81" stroke-width="1.5" opacity="0.30"/><rect x="450" y="204.6656372891739" width="22" height="72.28744765464216" rx="2" fill="#0ECB81" opacity="0.42"/><line x1="503" y1="183.5656842486933" x2="503" y2="282.8604588508606" stroke="#0ECB81" stroke-width="1.5" opacity="0.30"/><rect x="492" y="203.23328515794128" width="22" height="59.95957278367132" rx="2" fill="#0ECB81" opacity="0.42"/><line x1="545" y1="191.25624723825604" x2="545" y2="323.620783707127" stroke="#F6465D" stroke-width="1.5" opacity="0.30"/><rect x="534" y="215.9808757835999" width="22" height="82.91527937818319" rx="2" fill="#F6465D" opacity="0.42"/><line x1="587" y1="218.52449361700565" x2="587" y2="294.1557511202991" stroke="#0ECB81" stroke-width="1.5" opacity="0.30"/><rect x="576" y="236.56542830448598" width="22" height="39.549388128332794" rx="2" fill="#0ECB81" opacity="0.42"/><line x1="629" y1="175.5315781319514" x2="629" y2="290.7038688380271" stroke="#F6465D" stroke-width="1.5" opacity="0.30"/><rect x="618" y="191.8947324277833" width="22" height="82.44598211441189" rx="2" fill="#F6465D" opacity="0.42"/><line x1="671" y1="171.6295582400635" x2="671" y2="304.33667530864477" stroke="#0ECB81" stroke-width="1.5" opacity="0.30"/><rect x="660" y="200.3066697185859" width="22" height="75.35289411153644" rx="2" fill="#0ECB81" opacity="0.42"/><line x1="713" y1="229.0740405926481" x2="713" y2="298.5186762046069" stroke="#0ECB81" stroke-width="1.5" opacity="0.30"/><rect x="702" y="249.91455051396042" width="22" height="27.763615769334137" rx="2" fill="#0ECB81" opacity="0.42"/><line x1="755" y1="252.42042126972228" x2="755" y2="309.7043903209269" stroke="#0ECB81" stroke-width="1.5" opacity="0.30"/><rect x="744" y="268.52471646200866" width="22" height="25.075378666631877" rx="2" fill="#0ECB81" opacity="0.42"/> <path d="M -20 185.05557611817494 Q -20 185.05557611817494 20 179.73700773902237 T 60 174.4184393598698 Q 60 174.4184393598698 100 157.64950948418118 T 140 140.88057960849255 Q 140 140.88057960849255 180 136.14162804558873 T 220 131.4026764826849 Q 220 131.4026764826849 260 126.31481304881163 T 300 121.22694961493835 Q 300 121.22694961493835 340 133.60706074163318 T 380 145.987171868328 Q 380 145.987171868328 420 138.72271262691356 T 460 131.45825338549912 Q 460 131.45825338549912 500 135.70181705988944 T 540 139.94538073427975 Q 540 139.94538073427975 580 141.03287432459183 T 620 142.1203679149039 Q 620 142.1203679149039 660 145.65116117708385 T 700 149.1819544392638 Q 700 149.1819544392638 740 156.09906355501153 T 780 163.01617267075926 L 820 360 L -20 360 Z" fill="url(#trendfill)" opacity="0.5"/><path d="M -20 185.05557611817494 Q -20 185.05557611817494 20 179.73700773902237 T 60 174.4184393598698 Q 60 174.4184393598698 100 157.64950948418118 T 140 140.88057960849255 Q 140 140.88057960849255 180 136.14162804558873 T 220 131.4026764826849 Q 220 131.4026764826849 260 126.31481304881163 T 300 121.22694961493835 Q 300 121.22694961493835 340 133.60706074163318 T 380 145.987171868328 Q 380 145.987171868328 420 138.72271262691356 T 460 131.45825338549912 Q 460 131.45825338549912 500 135.70181705988944 T 540 139.94538073427975 Q 540 139.94538073427975 580 141.03287432459183 T 620 142.1203679149039 Q 620 142.1203679149039 660 145.65116117708385 T 700 149.1819544392638 Q 700 149.1819544392638 740 156.09906355501153 T 780 163.01617267075926" fill="none" stroke="#F0B90B" stroke-width="2.5" opacity="0.85" stroke-linecap="round"/> <g opacity="0.85"><line x1="736" y1="110" x2="748" y2="110" stroke="hsl(81 70% 60%)" stroke-width="7" opacity="0.5" stroke-linecap="round"/><line x1="727.2147817412476" y1="137.03812160545377" x2="736.922985673747" y2="144.09154463296343" stroke="hsl(81 70% 60%)" stroke-width="7" opacity="0.5" stroke-linecap="round"/><line x1="704.2147817412476" y1="153.74859974957707" x2="707.922985673747" y2="165.1612779451189" stroke="hsl(81 70% 60%)" stroke-width="7" opacity="0.5" stroke-linecap="round"/><line x1="675.7852182587524" y1="153.74859974957707" x2="672.0770143262531" y2="165.1612779451189" stroke="hsl(81 70% 60%)" stroke-width="7" opacity="0.5" stroke-linecap="round"/><line x1="652.7852182587524" y1="137.03812160545377" x2="643.0770143262531" y2="144.09154463296346" stroke="hsl(81 70% 60%)" stroke-width="7" opacity="0.5" stroke-linecap="round"/><line x1="644" y1="110" x2="632" y2="110" stroke="hsl(81 70% 60%)" stroke-width="7" opacity="0.5" stroke-linecap="round"/><line x1="652.7852182587524" y1="82.96187839454623" x2="643.077014326253" y2="75.90845536703657" stroke="hsl(81 70% 60%)" stroke-width="7" opacity="0.5" stroke-linecap="round"/><line x1="675.7852182587524" y1="66.25140025042293" x2="672.077014326253" y2="54.838722054881096" stroke="hsl(81 70% 60%)" stroke-width="7" opacity="0.5" stroke-linecap="round"/><line x1="704.2147817412475" y1="66.25140025042293" x2="707.9229856737469" y2="54.83872205488109" stroke="hsl(81 70% 60%)" stroke-width="7" opacity="0.5" stroke-linecap="round"/><line x1="727.2147817412476" y1="82.96187839454623" x2="736.9229856737469" y2="75.90845536703654" stroke="hsl(81 70% 60%)" stroke-width="7" opacity="0.5" stroke-linecap="round"/><circle cx="690" cy="110" r="46" fill="none" stroke="hsl(81 70% 60%)" stroke-width="6" opacity="0.6"/><circle cx="690" cy="110" r="16" fill="none" stroke="hsl(81 70% 60%)" stroke-width="6" opacity="0.6"/></g> <text x="40" y="320" font-family="'JetBrains Mono', monospace" font-size="58" font-weight="700" fill="#ffffff" opacity="0.07">Scalping Robot Pro</text> </svg>