<svg xmlns="http://www.w3.org/2000/svg" viewBox="0 0 800 360" preserveAspectRatio="xMidYMid slice"> <defs> <linearGradient id="bg" x1="0" y1="0" x2="1" y2="1"><stop offset="0" stop-color="#0e1218"/><stop offset="1" stop-color="#05080b"/></linearGradient> <radialGradient id="glow" cx="30%" cy="25%" r="70%"><stop offset="0" stop-color="hsl(222 70% 50%)" stop-opacity="0.35"/><stop offset="1" stop-color="hsl(222 70% 50%)" stop-opacity="0"/></radialGradient> <linearGradient id="trendfill" x1="0" y1="0" x2="0" y2="1"><stop offset="0" stop-color="#F0B90B" stop-opacity="0.22"/><stop offset="1" stop-color="#F0B90B" stop-opacity="0"/></linearGradient> <linearGradient id="goldgrad" x1="0" y1="0" x2="1" y2="1"><stop offset="0" stop-color="#FCD535"/><stop offset="1" stop-color="#B8860B"/></linearGradient> <pattern id="grid" width="36" height="36" patternUnits="userSpaceOnUse"><path d="M36 0H0V36" fill="none" stroke="#ffffff" stroke-width="0.5" opacity="0.035"/></pattern> </defs> <rect width="800" height="360" fill="url(#bg)"/> <rect width="800" height="360" fill="url(#grid)"/> <rect width="800" height="360" fill="url(#glow)"/> <line x1="41" y1="232.54586349241436" x2="41" y2="299.3299663909711" stroke="#0ECB81" stroke-width="1.5" opacity="0.30"/><rect x="30" y="242.73170221643522" width="22" height="46.412425450515" rx="2" fill="#0ECB81" opacity="0.42"/><line x1="83" y1="215.5345162395388" x2="83" y2="284.40782197611406" stroke="#0ECB81" stroke-width="1.5" opacity="0.30"/><rect x="72" y="232.9802584000863" width="22" height="33.981821415480226" rx="2" fill="#0ECB81" opacity="0.42"/><line x1="125" y1="193.96421969495714" x2="125" y2="310.0624943287112" stroke="#0ECB81" stroke-width="1.5" opacity="0.30"/><rect x="114" y="209.41489411564544" width="22" height="85.19692579237744" rx="2" fill="#0ECB81" opacity="0.42"/><line x1="167" y1="240.92643027193844" x2="167" y2="307.3962550056167" stroke="#0ECB81" stroke-width="1.5" opacity="0.30"/><rect x="156" y="255.2228389964439" width="22" height="37.87700728466734" rx="2" fill="#0ECB81" opacity="0.42"/><line x1="209" y1="195.23628297261894" x2="209" y2="294.88801588350907" stroke="#0ECB81" stroke-width="1.5" opacity="0.30"/><rect x="198" y="214.59523655520752" width="22" height="60.933825745712966" rx="2" fill="#0ECB81" opacity="0.42"/><line x1="251" y1="224.09933943487704" x2="251" y2="315.1314883385785" stroke="#0ECB81" stroke-width="1.5" opacity="0.30"/><rect x="240" y="247.24191469186917" width="22" height="44.74699838971719" rx="2" fill="#0ECB81" opacity="0.42"/><line x1="293" y1="196.60255472920835" x2="293" y2="283.64951430121437" stroke="#0ECB81" stroke-width="1.5" opacity="0.30"/><rect x="282" y="218.50185932638124" width="22" height="43.248350377660245" rx="2" fill="#0ECB81" opacity="0.42"/><line x1="335" y1="227.71696290560067" x2="335" y2="285.2533191856928" stroke="#F6465D" stroke-width="1.5" opacity="0.30"/><rect x="324" y="238.33064115652815" width="22" height="36.308999778237194" rx="2" fill="#F6465D" opacity="0.42"/><line x1="377" y1="239.49958129040897" x2="377" y2="318.9154366948642" stroke="#F6465D" stroke-width="1.5" opacity="0.30"/><rect x="366" y="264.94604554073885" width="22" height="28.52292690379545" rx="2" fill="#F6465D" opacity="0.42"/><line x1="419" y1="229.18203353323042" x2="419" y2="321.6250554998405" stroke="#F6465D" stroke-width="1.5" opacity="0.30"/><rect x="408" y="251.41315550589934" width="22" height="47.98077802127227" rx="2" fill="#F6465D" opacity="0.42"/><line x1="461" y1="202.8333914037794" x2="461" y2="295.19453779468313" stroke="#0ECB81" stroke-width="1.5" opacity="0.30"/><rect x="450" y="225.95013788016513" width="22" height="46.127653438132256" rx="2" fill="#0ECB81" opacity="0.42"/><line x1="503" y1="176.2847353387624" x2="503" y2="289.48585972609" stroke="#F6465D" stroke-width="1.5" opacity="0.30"/><rect x="492" y="199.23598255077377" width="22" height="67.29862996330485" rx="2" fill="#F6465D" opacity="0.42"/><line x1="545" y1="244.0029337387532" x2="545" y2="289.0257236980833" stroke="#0ECB81" stroke-width="1.5" opacity="0.30"/><rect x="534" y="254.50144484685734" width="22" height="24.025767743121833" rx="2" fill="#0ECB81" opacity="0.42"/><line x1="587" y1="193.6011410150677" x2="587" y2="285.47809255169705" stroke="#0ECB81" stroke-width="1.5" opacity="0.30"/><rect x="576" y="218.68444104725495" width="22" height="41.71035147225484" rx="2" fill="#0ECB81" opacity="0.42"/><line x1="629" y1="214.673514386639" x2="629" y2="299.94289561966434" stroke="#F6465D" stroke-width="1.5" opacity="0.30"/><rect x="618" y="235.43114701332524" width="22" height="43.75411597965285" rx="2" fill="#F6465D" opacity="0.42"/><line x1="671" y1="193.6416494268924" x2="671" y2="298.54965665610507" stroke="#F6465D" stroke-width="1.5" opacity="0.30"/><rect x="660" y="213.2240499467589" width="22" height="65.74320618947968" rx="2" fill="#F6465D" opacity="0.42"/><line x1="713" y1="195.30023436062038" x2="713" y2="328.3147936412133" stroke="#0ECB81" stroke-width="1.5" opacity="0.30"/><rect x="702" y="224.4182032723911" width="22" height="74.77862145705149" rx="2" fill="#0ECB81" opacity="0.42"/><line x1="755" y1="204.7494231108576" x2="755" y2="289.7313404609449" stroke="#F6465D" stroke-width="1.5" opacity="0.30"/><rect x="744" y="223.46693464601412" width="22" height="47.54689427977428" rx="2" fill="#F6465D" opacity="0.42"/> <path d="M -20 166.2674157647416 Q -20 166.2674157647416 20 149.64269806980155 T 60 133.0179803748615 Q 60 133.0179803748615 100 143.05918934522197 T 140 153.10039831558242 Q 140 153.10039831558242 180 139.72416660632007 T 220 126.34793489705771 Q 220 126.34793489705771 260 137.52445402322337 T 300 148.70097314938903 Q 300 148.70097314938903 340 132.4618330912199 T 380 116.22269303305075 Q 380 116.22269303305075 420 99.87974809249863 T 460 83.53680315194651 Q 460 83.53680315194651 500 81.76840157597326 T 540 80 Q 540 80 580 80.42771165026352 T 620 80.85542330052704 Q 620 80.85542330052704 660 90.85245723254047 T 700 100.84949116455391 Q 700 100.84949116455391 740 92.01755488058552 T 780 83.18561859661713 L 820 360 L -20 360 Z" fill="url(#trendfill)" opacity="0.5"/><path d="M -20 166.2674157647416 Q -20 166.2674157647416 20 149.64269806980155 T 60 133.0179803748615 Q 60 133.0179803748615 100 143.05918934522197 T 140 153.10039831558242 Q 140 153.10039831558242 180 139.72416660632007 T 220 126.34793489705771 Q 220 126.34793489705771 260 137.52445402322337 T 300 148.70097314938903 Q 300 148.70097314938903 340 132.4618330912199 T 380 116.22269303305075 Q 380 116.22269303305075 420 99.87974809249863 T 460 83.53680315194651 Q 460 83.53680315194651 500 81.76840157597326 T 540 80 Q 540 80 580 80.42771165026352 T 620 80.85542330052704 Q 620 80.85542330052704 660 90.85245723254047 T 700 100.84949116455391 Q 700 100.84949116455391 740 92.01755488058552 T 780 83.18561859661713" fill="none" stroke="#F0B90B" stroke-width="2.5" opacity="0.85" stroke-linecap="round"/> <g opacity="0.9"><g><rect x="630" y="250" width="70" height="22" rx="3" fill="url(#goldgrad)"/><rect x="630" y="250" width="70" height="6" rx="3" fill="#fff" opacity="0.25"/></g><g><rect x="612" y="276" width="106" height="22" rx="3" fill="url(#goldgrad)"/><rect x="612" y="276" width="106" height="6" rx="3" fill="#fff" opacity="0.25"/></g><g><rect x="660" y="224" width="70" height="22" rx="3" fill="url(#goldgrad)"/><rect x="660" y="224" width="70" height="6" rx="3" fill="#fff" opacity="0.25"/></g></g> <text x="40" y="320" font-family="'JetBrains Mono', monospace" font-size="58" font-weight="700" fill="#ffffff" opacity="0.07">Sharkyra Gold</text> </svg>