<svg xmlns="http://www.w3.org/2000/svg" viewBox="0 0 800 360" preserveAspectRatio="xMidYMid slice"> <defs> <linearGradient id="bg" x1="0" y1="0" x2="1" y2="1"><stop offset="0" stop-color="#0e1218"/><stop offset="1" stop-color="#05080b"/></linearGradient> <radialGradient id="glow" cx="30%" cy="25%" r="70%"><stop offset="0" stop-color="hsl(173 70% 50%)" stop-opacity="0.35"/><stop offset="1" stop-color="hsl(173 70% 50%)" stop-opacity="0"/></radialGradient> <linearGradient id="trendfill" x1="0" y1="0" x2="0" y2="1"><stop offset="0" stop-color="#F0B90B" stop-opacity="0.22"/><stop offset="1" stop-color="#F0B90B" stop-opacity="0"/></linearGradient> <linearGradient id="goldgrad" x1="0" y1="0" x2="1" y2="1"><stop offset="0" stop-color="#FCD535"/><stop offset="1" stop-color="#B8860B"/></linearGradient> <pattern id="grid" width="36" height="36" patternUnits="userSpaceOnUse"><path d="M36 0H0V36" fill="none" stroke="#ffffff" stroke-width="0.5" opacity="0.035"/></pattern> </defs> <rect width="800" height="360" fill="url(#bg)"/> <rect width="800" height="360" fill="url(#grid)"/> <rect width="800" height="360" fill="url(#glow)"/> <line x1="41" y1="191.8677880736068" x2="41" y2="303.3159810490906" stroke="#0ECB81" stroke-width="1.5" opacity="0.30"/><rect x="30" y="222.36662779282779" width="22" height="50.45051353704184" rx="2" fill="#0ECB81" opacity="0.42"/><line x1="83" y1="198.22670521680266" x2="83" y2="281.6814845595509" stroke="#F6465D" stroke-width="1.5" opacity="0.30"/><rect x="72" y="211.24642503727227" width="22" height="57.41533970180899" rx="2" fill="#F6465D" opacity="0.42"/><line x1="125" y1="168.3928456204012" x2="125" y2="277.39428249001503" stroke="#0ECB81" stroke-width="1.5" opacity="0.30"/><rect x="114" y="185.62076455261558" width="22" height="74.54559900518507" rx="2" fill="#0ECB81" opacity="0.42"/><line x1="167" y1="181.77592970523983" x2="167" y2="302.307827046141" stroke="#F6465D" stroke-width="1.5" opacity="0.30"/><rect x="156" y="213.44960584584624" width="22" height="57.18454505968839" rx="2" fill="#F6465D" opacity="0.42"/><line x1="209" y1="175.94972513336688" x2="209" y2="278.01607183739543" stroke="#0ECB81" stroke-width="1.5" opacity="0.30"/><rect x="198" y="191.74873270373791" width="22" height="70.46833156328648" rx="2" fill="#0ECB81" opacity="0.42"/><line x1="251" y1="230.37250579241663" x2="251" y2="306.2766896504909" stroke="#0ECB81" stroke-width="1.5" opacity="0.30"/><rect x="240" y="258.35305885691196" width="22" height="19.943077729083598" rx="2" fill="#0ECB81" opacity="0.42"/><line x1="293" y1="242.9161045299843" x2="293" y2="323.7838995978236" stroke="#0ECB81" stroke-width="1.5" opacity="0.30"/><rect x="282" y="272.43969926889986" width="22" height="21.8206055900082" rx="2" fill="#0ECB81" opacity="0.42"/><line x1="335" y1="204.64105963800102" x2="335" y2="294.134653640911" stroke="#0ECB81" stroke-width="1.5" opacity="0.30"/><rect x="324" y="222.71705705020577" width="22" height="53.34159917850047" rx="2" fill="#0ECB81" opacity="0.42"/><line x1="377" y1="207.2553550871089" x2="377" y2="323.3319324888289" stroke="#F6465D" stroke-width="1.5" opacity="0.30"/><rect x="366" y="234.686175997369" width="22" height="61.214935581199825" rx="2" fill="#F6465D" opacity="0.42"/><line x1="419" y1="200.69425451103598" x2="419" y2="284.6689008716494" stroke="#F6465D" stroke-width="1.5" opacity="0.30"/><rect x="408" y="220.8806087570265" width="22" height="43.601937868632376" rx="2" fill="#F6465D" opacity="0.42"/><line x1="461" y1="197.2587289409712" x2="461" y2="282.33767218887806" stroke="#F6465D" stroke-width="1.5" opacity="0.30"/><rect x="450" y="210.4910506149754" width="22" height="58.61429989989847" rx="2" fill="#F6465D" opacity="0.42"/><line x1="503" y1="225.74997828993946" x2="503" y2="308.60643253289163" stroke="#F6465D" stroke-width="1.5" opacity="0.30"/><rect x="492" y="237.28098891023546" width="22" height="59.794433002360165" rx="2" fill="#F6465D" opacity="0.42"/><line x1="545" y1="224.03754658717662" x2="545" y2="286.9086740873754" stroke="#0ECB81" stroke-width="1.5" opacity="0.30"/><rect x="534" y="237.19961807411164" width="22" height="36.54698452632874" rx="2" fill="#0ECB81" opacity="0.42"/><line x1="587" y1="225.49853096250445" x2="587" y2="318.68828790076077" stroke="#F6465D" stroke-width="1.5" opacity="0.30"/><rect x="576" y="249.5982702942565" width="22" height="44.9902782747522" rx="2" fill="#F6465D" opacity="0.42"/><line x1="629" y1="171.76538438070565" x2="629" y2="307.3442660346627" stroke="#0ECB81" stroke-width="1.5" opacity="0.30"/><rect x="618" y="198.4566118037328" width="22" height="82.19642680790275" rx="2" fill="#0ECB81" opacity="0.42"/><line x1="671" y1="195.2198121258989" x2="671" y2="304.11876308731735" stroke="#F6465D" stroke-width="1.5" opacity="0.30"/><rect x="660" y="222.52485479507595" width="22" height="54.28886562306434" rx="2" fill="#F6465D" opacity="0.42"/><line x1="713" y1="217.67026203591377" x2="713" y2="310.2722670920193" stroke="#0ECB81" stroke-width="1.5" opacity="0.30"/><rect x="702" y="245.7882349593565" width="22" height="36.36605920922011" rx="2" fill="#0ECB81" opacity="0.42"/><line x1="755" y1="216.65050848666579" x2="755" y2="307.3896297905594" stroke="#F6465D" stroke-width="1.5" opacity="0.30"/><rect x="744" y="232.16000465024263" width="22" height="59.72012897673994" rx="2" fill="#F6465D" opacity="0.42"/> <path d="M -20 213.444601718802 Q -20 213.444601718802 20 229.5449752220884 T 60 245.6453487253748 Q 60 245.6453487253748 100 247.8226743626874 T 140 250 Q 140 250 180 245.81493786536157 T 220 241.62987573072314 Q 220 241.62987573072314 260 229.3425957497675 T 300 217.05531576881185 Q 300 217.05531576881185 340 200.60739462263882 T 380 184.1594734764658 Q 380 184.1594734764658 420 196.47601886303164 T 460 208.7925642495975 Q 460 208.7925642495975 500 199.76451681926847 T 540 190.73646938893944 Q 540 190.73646938893944 580 178.34988001850434 T 620 165.96329064806923 Q 620 165.96329064806923 660 151.55384620651603 T 700 137.14440176496282 Q 700 137.14440176496282 740 134.89770446554758 T 780 132.65100716613233 L 820 360 L -20 360 Z" fill="url(#trendfill)" opacity="0.5"/><path d="M -20 213.444601718802 Q -20 213.444601718802 20 229.5449752220884 T 60 245.6453487253748 Q 60 245.6453487253748 100 247.8226743626874 T 140 250 Q 140 250 180 245.81493786536157 T 220 241.62987573072314 Q 220 241.62987573072314 260 229.3425957497675 T 300 217.05531576881185 Q 300 217.05531576881185 340 200.60739462263882 T 380 184.1594734764658 Q 380 184.1594734764658 420 196.47601886303164 T 460 208.7925642495975 Q 460 208.7925642495975 500 199.76451681926847 T 540 190.73646938893944 Q 540 190.73646938893944 580 178.34988001850434 T 620 165.96329064806923 Q 620 165.96329064806923 660 151.55384620651603 T 700 137.14440176496282 Q 700 137.14440176496282 740 134.89770446554758 T 780 132.65100716613233" fill="none" stroke="#F0B90B" stroke-width="2.5" opacity="0.85" stroke-linecap="round"/> <g opacity="0.9"><g><rect x="630" y="250" width="70" height="22" rx="3" fill="url(#goldgrad)"/><rect x="630" y="250" width="70" height="6" rx="3" fill="#fff" opacity="0.25"/></g><g><rect x="612" y="276" width="106" height="22" rx="3" fill="url(#goldgrad)"/><rect x="612" y="276" width="106" height="6" rx="3" fill="#fff" opacity="0.25"/></g><g><rect x="660" y="224" width="70" height="22" rx="3" fill="url(#goldgrad)"/><rect x="660" y="224" width="70" height="6" rx="3" fill="#fff" opacity="0.25"/></g></g> <text x="40" y="320" font-family="'JetBrains Mono', monospace" font-size="58" font-weight="700" fill="#ffffff" opacity="0.07">The Gold Reaper</text> </svg>