<svg xmlns="http://www.w3.org/2000/svg" viewBox="0 0 800 360" preserveAspectRatio="xMidYMid slice"> <defs> <linearGradient id="bg" x1="0" y1="0" x2="1" y2="1"><stop offset="0" stop-color="#0e1218"/><stop offset="1" stop-color="#05080b"/></linearGradient> <radialGradient id="glow" cx="30%" cy="25%" r="70%"><stop offset="0" stop-color="hsl(220 70% 50%)" stop-opacity="0.35"/><stop offset="1" stop-color="hsl(220 70% 50%)" stop-opacity="0"/></radialGradient> <linearGradient id="trendfill" x1="0" y1="0" x2="0" y2="1"><stop offset="0" stop-color="#F0B90B" stop-opacity="0.22"/><stop offset="1" stop-color="#F0B90B" stop-opacity="0"/></linearGradient> <linearGradient id="goldgrad" x1="0" y1="0" x2="1" y2="1"><stop offset="0" stop-color="#FCD535"/><stop offset="1" stop-color="#B8860B"/></linearGradient> <pattern id="grid" width="36" height="36" patternUnits="userSpaceOnUse"><path d="M36 0H0V36" fill="none" stroke="#ffffff" stroke-width="0.5" opacity="0.035"/></pattern> </defs> <rect width="800" height="360" fill="url(#bg)"/> <rect width="800" height="360" fill="url(#grid)"/> <rect width="800" height="360" fill="url(#glow)"/> <line x1="41" y1="163.7127863317728" x2="41" y2="292.3960429499857" stroke="#0ECB81" stroke-width="1.5" opacity="0.30"/><rect x="30" y="193.30727699724957" width="22" height="69.49427528725937" rx="2" fill="#0ECB81" opacity="0.42"/><line x1="83" y1="234.7478298805654" x2="83" y2="304.4184033474885" stroke="#0ECB81" stroke-width="1.5" opacity="0.30"/><rect x="72" y="250.55480421101674" width="22" height="38.05662480602041" rx="2" fill="#0ECB81" opacity="0.42"/><line x1="125" y1="224.14760015159845" x2="125" y2="271.66617751447484" stroke="#F6465D" stroke-width="1.5" opacity="0.30"/><rect x="114" y="234.15806842548773" width="22" height="27.49764081509784" rx="2" fill="#F6465D" opacity="0.42"/><line x1="167" y1="220.29891030862927" x2="167" y2="298.9000423117541" stroke="#F6465D" stroke-width="1.5" opacity="0.30"/><rect x="156" y="233.89592448761687" width="22" height="51.40710364514962" rx="2" fill="#F6465D" opacity="0.42"/><line x1="209" y1="222.56042104959488" x2="209" y2="285.773733376991" stroke="#F6465D" stroke-width="1.5" opacity="0.30"/><rect x="198" y="240.8438046979718" width="22" height="26.6465450306423" rx="2" fill="#F6465D" opacity="0.42"/><line x1="251" y1="187.38446677848697" x2="251" y2="304.8583371168934" stroke="#0ECB81" stroke-width="1.5" opacity="0.30"/><rect x="240" y="210.9851690060459" width="22" height="70.27246588328853" rx="2" fill="#0ECB81" opacity="0.42"/><line x1="293" y1="172.29435052722692" x2="293" y2="283.69587957439944" stroke="#0ECB81" stroke-width="1.5" opacity="0.30"/><rect x="282" y="195.5905333305709" width="22" height="64.80916344048455" rx="2" fill="#0ECB81" opacity="0.42"/><line x1="335" y1="209.90460762754083" x2="335" y2="307.6009621708654" stroke="#F6465D" stroke-width="1.5" opacity="0.30"/><rect x="324" y="220.39532600482926" width="22" height="76.7149177887477" rx="2" fill="#F6465D" opacity="0.42"/><line x1="377" y1="185.17173813283443" x2="377" y2="291.4291943232529" stroke="#F6465D" stroke-width="1.5" opacity="0.30"/><rect x="366" y="198.1078223469667" width="22" height="80.3852877621539" rx="2" fill="#F6465D" opacity="0.42"/><line x1="419" y1="200.0629079900682" x2="419" y2="290.0311729363166" stroke="#F6465D" stroke-width="1.5" opacity="0.30"/><rect x="408" y="221.2784073553048" width="22" height="47.53726621577516" rx="2" fill="#F6465D" opacity="0.42"/><line x1="461" y1="164.83011896163225" x2="461" y2="304.6107587697916" stroke="#0ECB81" stroke-width="1.5" opacity="0.30"/><rect x="450" y="195.06141652865335" width="22" height="79.31804467411712" rx="2" fill="#0ECB81" opacity="0.42"/><line x1="503" y1="208.07734729722142" x2="503" y2="321.70639968058094" stroke="#0ECB81" stroke-width="1.5" opacity="0.30"/><rect x="492" y="231.90080481162295" width="22" height="65.98213735455647" rx="2" fill="#0ECB81" opacity="0.42"/><line x1="545" y1="218.80815115571022" x2="545" y2="323.01425073994324" stroke="#F6465D" stroke-width="1.5" opacity="0.30"/><rect x="534" y="242.67089366493747" width="22" height="56.480614565778524" rx="2" fill="#F6465D" opacity="0.42"/><line x1="587" y1="158.64124677702785" x2="587" y2="291.77184122567996" stroke="#0ECB81" stroke-width="1.5" opacity="0.30"/><rect x="576" y="181.30344626074657" width="22" height="87.80619548121467" rx="2" fill="#0ECB81" opacity="0.42"/><line x1="629" y1="213.38155340403318" x2="629" y2="312.9210384893231" stroke="#F6465D" stroke-width="1.5" opacity="0.30"/><rect x="618" y="232.4323208029382" width="22" height="61.43795028747991" rx="2" fill="#F6465D" opacity="0.42"/><line x1="671" y1="182.1342069543898" x2="671" y2="307.7690586983226" stroke="#F6465D" stroke-width="1.5" opacity="0.30"/><rect x="660" y="214.08695197245106" width="22" height="61.72936170781031" rx="2" fill="#F6465D" opacity="0.42"/><line x1="713" y1="215.149042442441" x2="713" y2="303.3662744532339" stroke="#0ECB81" stroke-width="1.5" opacity="0.30"/><rect x="702" y="229.96591049758717" width="22" height="58.583495900500566" rx="2" fill="#0ECB81" opacity="0.42"/><line x1="755" y1="220.58304515108466" x2="755" y2="310.3195692799054" stroke="#0ECB81" stroke-width="1.5" opacity="0.30"/><rect x="744" y="238.32179084932432" width="22" height="54.25903273234144" rx="2" fill="#0ECB81" opacity="0.42"/> <path d="M -20 226.83797240257263 Q -20 226.83797240257263 20 238.41898620128632 T 60 250 Q 60 250 100 235.58402251219377 T 140 221.16804502438754 Q 140 221.16804502438754 180 229.50253340764903 T 220 237.8370217909105 Q 220 237.8370217909105 260 225.37554916692898 T 300 212.91407654294744 Q 300 212.91407654294744 340 223.4570227272343 T 380 233.99996891152114 Q 380 233.99996891152114 420 239.75974802626297 T 460 245.5195271410048 Q 460 245.5195271410048 500 245.11287183850072 T 540 244.70621653599665 Q 540 244.70621653599665 580 230.05119498586282 T 620 215.396173435729 Q 620 215.396173435729 660 208.91281598131172 T 700 202.42945852689445 Q 700 202.42945852689445 740 190.12502366444096 T 780 177.82058880198747 L 820 360 L -20 360 Z" fill="url(#trendfill)" opacity="0.5"/><path d="M -20 226.83797240257263 Q -20 226.83797240257263 20 238.41898620128632 T 60 250 Q 60 250 100 235.58402251219377 T 140 221.16804502438754 Q 140 221.16804502438754 180 229.50253340764903 T 220 237.8370217909105 Q 220 237.8370217909105 260 225.37554916692898 T 300 212.91407654294744 Q 300 212.91407654294744 340 223.4570227272343 T 380 233.99996891152114 Q 380 233.99996891152114 420 239.75974802626297 T 460 245.5195271410048 Q 460 245.5195271410048 500 245.11287183850072 T 540 244.70621653599665 Q 540 244.70621653599665 580 230.05119498586282 T 620 215.396173435729 Q 620 215.396173435729 660 208.91281598131172 T 700 202.42945852689445 Q 700 202.42945852689445 740 190.12502366444096 T 780 177.82058880198747" fill="none" stroke="#F0B90B" stroke-width="2.5" opacity="0.85" stroke-linecap="round"/> <g opacity="0.85"><line x1="736" y1="110" x2="748" y2="110" stroke="hsl(220 70% 60%)" stroke-width="7" opacity="0.5" stroke-linecap="round"/><line x1="727.2147817412476" y1="137.03812160545377" x2="736.922985673747" y2="144.09154463296343" stroke="hsl(220 70% 60%)" stroke-width="7" opacity="0.5" stroke-linecap="round"/><line x1="704.2147817412476" y1="153.74859974957707" x2="707.922985673747" y2="165.1612779451189" stroke="hsl(220 70% 60%)" stroke-width="7" opacity="0.5" stroke-linecap="round"/><line x1="675.7852182587524" y1="153.74859974957707" x2="672.0770143262531" y2="165.1612779451189" stroke="hsl(220 70% 60%)" stroke-width="7" opacity="0.5" stroke-linecap="round"/><line x1="652.7852182587524" y1="137.03812160545377" x2="643.0770143262531" y2="144.09154463296346" stroke="hsl(220 70% 60%)" stroke-width="7" opacity="0.5" stroke-linecap="round"/><line x1="644" y1="110" x2="632" y2="110" stroke="hsl(220 70% 60%)" stroke-width="7" opacity="0.5" stroke-linecap="round"/><line x1="652.7852182587524" y1="82.96187839454623" x2="643.077014326253" y2="75.90845536703657" stroke="hsl(220 70% 60%)" stroke-width="7" opacity="0.5" stroke-linecap="round"/><line x1="675.7852182587524" y1="66.25140025042293" x2="672.077014326253" y2="54.838722054881096" stroke="hsl(220 70% 60%)" stroke-width="7" opacity="0.5" stroke-linecap="round"/><line x1="704.2147817412475" y1="66.25140025042293" x2="707.9229856737469" y2="54.83872205488109" stroke="hsl(220 70% 60%)" stroke-width="7" opacity="0.5" stroke-linecap="round"/><line x1="727.2147817412476" y1="82.96187839454623" x2="736.9229856737469" y2="75.90845536703654" stroke="hsl(220 70% 60%)" stroke-width="7" opacity="0.5" stroke-linecap="round"/><circle cx="690" cy="110" r="46" fill="none" stroke="hsl(220 70% 60%)" stroke-width="6" opacity="0.6"/><circle cx="690" cy="110" r="16" fill="none" stroke="hsl(220 70% 60%)" stroke-width="6" opacity="0.6"/></g> <text x="40" y="320" font-family="'JetBrains Mono', monospace" font-size="58" font-weight="700" fill="#ffffff" opacity="0.07">TwisterPro Scalper</text> </svg>