<svg xmlns="http://www.w3.org/2000/svg" viewBox="0 0 800 360" preserveAspectRatio="xMidYMid slice"> <defs> <linearGradient id="bg" x1="0" y1="0" x2="1" y2="1"><stop offset="0" stop-color="#0e1218"/><stop offset="1" stop-color="#05080b"/></linearGradient> <radialGradient id="glow" cx="30%" cy="25%" r="70%"><stop offset="0" stop-color="hsl(150 70% 50%)" stop-opacity="0.35"/><stop offset="1" stop-color="hsl(150 70% 50%)" stop-opacity="0"/></radialGradient> <linearGradient id="trendfill" x1="0" y1="0" x2="0" y2="1"><stop offset="0" stop-color="#F0B90B" stop-opacity="0.22"/><stop offset="1" stop-color="#F0B90B" stop-opacity="0"/></linearGradient> <linearGradient id="goldgrad" x1="0" y1="0" x2="1" y2="1"><stop offset="0" stop-color="#FCD535"/><stop offset="1" stop-color="#B8860B"/></linearGradient> <pattern id="grid" width="36" height="36" patternUnits="userSpaceOnUse"><path d="M36 0H0V36" fill="none" stroke="#ffffff" stroke-width="0.5" opacity="0.035"/></pattern> </defs> <rect width="800" height="360" fill="url(#bg)"/> <rect width="800" height="360" fill="url(#grid)"/> <rect width="800" height="360" fill="url(#glow)"/> <line x1="41" y1="232.34873180650175" x2="41" y2="310.29205326596275" stroke="#0ECB81" stroke-width="1.5" opacity="0.30"/><rect x="30" y="261.4986726832576" width="22" height="19.643439705949277" rx="2" fill="#0ECB81" opacity="0.42"/><line x1="83" y1="167.6137194354087" x2="83" y2="280.07053218455985" stroke="#F6465D" stroke-width="1.5" opacity="0.30"/><rect x="72" y="185.8021563948132" width="22" height="76.07993883034214" rx="2" fill="#F6465D" opacity="0.42"/><line x1="125" y1="183.27186234109104" x2="125" y2="318.5215662815608" stroke="#F6465D" stroke-width="1.5" opacity="0.30"/><rect x="114" y="208.78229256765917" width="22" height="84.2288434873335" rx="2" fill="#F6465D" opacity="0.42"/><line x1="167" y1="191.2984365168959" x2="167" y2="309.9329282124527" stroke="#0ECB81" stroke-width="1.5" opacity="0.30"/><rect x="156" y="219.47706461930647" width="22" height="62.27723549073562" rx="2" fill="#0ECB81" opacity="0.42"/><line x1="209" y1="226.21710357628763" x2="209" y2="313.47415790567175" stroke="#F6465D" stroke-width="1.5" opacity="0.30"/><rect x="198" y="255.61269601853564" width="22" height="28.465869444888085" rx="2" fill="#F6465D" opacity="0.42"/><line x1="251" y1="204.3994712997228" x2="251" y2="295.860502992291" stroke="#F6465D" stroke-width="1.5" opacity="0.30"/><rect x="240" y="224.97388954320922" width="22" height="50.312195205595344" rx="2" fill="#F6465D" opacity="0.42"/><line x1="293" y1="189.3138729315251" x2="293" y2="314.40553111070767" stroke="#F6465D" stroke-width="1.5" opacity="0.30"/><rect x="282" y="214.5572696630843" width="22" height="74.60486471606418" rx="2" fill="#F6465D" opacity="0.42"/><line x1="335" y1="192.4108652267605" x2="335" y2="300.9311640863307" stroke="#F6465D" stroke-width="1.5" opacity="0.30"/><rect x="324" y="205.78927804762498" width="22" height="81.76347321784124" rx="2" fill="#F6465D" opacity="0.42"/><line x1="377" y1="166.33294524811208" x2="377" y2="302.5038839862682" stroke="#0ECB81" stroke-width="1.5" opacity="0.30"/><rect x="366" y="196.5897721988149" width="22" height="75.65728483675048" rx="2" fill="#0ECB81" opacity="0.42"/><line x1="419" y1="162.13598591275513" x2="419" y2="292.4658610490151" stroke="#F6465D" stroke-width="1.5" opacity="0.30"/><rect x="408" y="193.56257720896974" width="22" height="67.47669254383072" rx="2" fill="#F6465D" opacity="0.42"/><line x1="461" y1="259.20989028923213" x2="461" y2="320.7297534891404" stroke="#F6465D" stroke-width="1.5" opacity="0.30"/><rect x="450" y="280.0942406435497" width="22" height="19.751162491273135" rx="2" fill="#F6465D" opacity="0.42"/><line x1="503" y1="171.58596464432776" x2="503" y2="289.80592917697504" stroke="#0ECB81" stroke-width="1.5" opacity="0.30"/><rect x="492" y="188.64224054897204" width="22" height="84.10741272335872" rx="2" fill="#0ECB81" opacity="0.42"/><line x1="545" y1="163.31851023994386" x2="545" y2="276.53085919329897" stroke="#0ECB81" stroke-width="1.5" opacity="0.30"/><rect x="534" y="177.9938965854235" width="22" height="83.86157626239583" rx="2" fill="#0ECB81" opacity="0.42"/><line x1="587" y1="170.62813387997448" x2="587" y2="306.96543325902894" stroke="#F6465D" stroke-width="1.5" opacity="0.30"/><rect x="576" y="198.7772342846729" width="22" height="80.03909856965765" rx="2" fill="#F6465D" opacity="0.42"/><line x1="629" y1="251.49427720718086" x2="629" y2="321.43194703990594" stroke="#F6465D" stroke-width="1.5" opacity="0.30"/><rect x="618" y="273.00505243288353" width="22" height="26.91611938131973" rx="2" fill="#F6465D" opacity="0.42"/><line x1="671" y1="226.3844647500664" x2="671" y2="306.15851132618263" stroke="#F6465D" stroke-width="1.5" opacity="0.30"/><rect x="660" y="245.9334435784258" width="22" height="40.67608891939744" rx="2" fill="#F6465D" opacity="0.42"/><line x1="713" y1="222.80777071975172" x2="713" y2="281.49963308731094" stroke="#F6465D" stroke-width="1.5" opacity="0.30"/><rect x="702" y="241.01601766468957" width="22" height="22.275368477683514" rx="2" fill="#F6465D" opacity="0.42"/><line x1="755" y1="199.3800045568496" x2="755" y2="296.2017184016295" stroke="#F6465D" stroke-width="1.5" opacity="0.30"/><rect x="744" y="221.23507878789678" width="22" height="53.11156538268551" rx="2" fill="#F6465D" opacity="0.42"/> <path d="M -20 210.3148836409673 Q -20 210.3148836409673 20 214.42350324592553 T 60 218.53212285088375 Q 60 218.53212285088375 100 231.84244498377666 T 140 245.15276711666957 Q 140 245.15276711666957 180 232.3633997316938 T 220 219.574032346718 Q 220 219.574032346718 260 231.0899345926009 T 300 242.6058368384838 Q 300 242.6058368384838 340 238.05404411978088 T 380 233.50225140107796 Q 380 233.50225140107796 420 223.9895314606838 T 460 214.47681152028963 Q 460 214.47681152028963 500 202.58040597545914 T 540 190.68400043062866 Q 540 190.68400043062866 580 179.5068705151789 T 620 168.32974059972912 Q 620 168.32974059972912 660 164.41960562369786 T 700 160.5094706476666 Q 700 160.5094706476666 740 146.35087126633152 T 780 132.19227188499644 L 820 360 L -20 360 Z" fill="url(#trendfill)" opacity="0.5"/><path d="M -20 210.3148836409673 Q -20 210.3148836409673 20 214.42350324592553 T 60 218.53212285088375 Q 60 218.53212285088375 100 231.84244498377666 T 140 245.15276711666957 Q 140 245.15276711666957 180 232.3633997316938 T 220 219.574032346718 Q 220 219.574032346718 260 231.0899345926009 T 300 242.6058368384838 Q 300 242.6058368384838 340 238.05404411978088 T 380 233.50225140107796 Q 380 233.50225140107796 420 223.9895314606838 T 460 214.47681152028963 Q 460 214.47681152028963 500 202.58040597545914 T 540 190.68400043062866 Q 540 190.68400043062866 580 179.5068705151789 T 620 168.32974059972912 Q 620 168.32974059972912 660 164.41960562369786 T 700 160.5094706476666 Q 700 160.5094706476666 740 146.35087126633152 T 780 132.19227188499644" fill="none" stroke="#F0B90B" stroke-width="2.5" opacity="0.85" stroke-linecap="round"/> <path d="M-20 120 C 120 94, 240 146, 400 120 S 680 94, 820 120" fill="none" stroke="hsl(150 75% 60%)" stroke-width="2" opacity="0.3"/><path d="M-20 175 C 120 154, 240 196, 400 175 S 680 154, 820 175" fill="none" stroke="hsl(150 75% 60%)" stroke-width="2" opacity="0.24"/><path d="M-20 230 C 120 214, 240 246, 400 230 S 680 214, 820 230" fill="none" stroke="hsl(150 75% 60%)" stroke-width="2" opacity="0.18"/> <text x="40" y="320" font-family="'JetBrains Mono', monospace" font-size="58" font-weight="700" fill="#ffffff" opacity="0.07">Wave Rider EA</text> </svg>